<svg xmlns="http://www.w3.org/2000/svg" viewBox="0 0 74.23 74.23"><defs><style>.cls-1{fill:#727272;}</style></defs><g id="Capa_2" data-name="Capa 2"><g id="Capa_1-2" data-name="Capa 1"><path class="" d="M65.57,7.42A8.66,8.66,0,0,0,57,14.85H42.06v2.47H56.91V65.57a1.24,1.24,0,0,0,2.48,0,6.19,6.19,0,0,1,12.37,0v.26a6,6,0,0,1-5.93,5.93H2.47V46.17a33.53,33.53,0,0,0,29.7,18.16,1.24,1.24,0,0,0,0-2.47,30.76,30.76,0,0,1-13.4-3.1l.77-2.87a3.62,3.62,0,0,0,3.28-2.72L26.89,38a22.06,22.06,0,0,0,2.8.34v1.27a1.24,1.24,0,1,0,2.48,0V38.32A20.38,20.38,0,0,0,35,38L39,53.17a3.61,3.61,0,0,0,3.28,2.72l1,3.81a1.24,1.24,0,0,0,1.2.92,1.12,1.12,0,0,0,.32,0,1.18,1.18,0,0,0,.75-.58,1.23,1.23,0,0,0,.12-.94l-1-3.8a3.73,3.73,0,0,0,1.49-4L38.08,21a8.63,8.63,0,0,0-2.2-12V5A4.95,4.95,0,0,0,26,5V9a8.63,8.63,0,0,0-2.2,12l-8.13,30.3a3.73,3.73,0,0,0,1.5,4l-.62,2.3a31,31,0,0,1-14.06-18V17.32H19.8V14.85H0V74.23H65.83a8.41,8.41,0,0,0,8.4-8.4V16.08a8.67,8.67,0,0,0-8.66-8.66ZM32.17,35.8V34.64a1.24,1.24,0,1,0-2.48,0V35.8a19.19,19.19,0,0,1-2.14-.24l2.9-10.84c.16,0,.32,0,.48,0s.32,0,.48,0l2.9,10.84a19.19,19.19,0,0,1-2.14.24ZM43.81,51.89A1.25,1.25,0,0,1,43,53.41h0a1.25,1.25,0,0,1-.93-.12,1.21,1.21,0,0,1-.57-.76l-7.6-28.3A8.58,8.58,0,0,0,36.07,23ZM28.46,5A2.47,2.47,0,1,1,33.4,5V7.79a8.65,8.65,0,0,0-4.94,0Zm2.47,5a6.19,6.19,0,1,1-6.19,6.18A6.16,6.16,0,0,1,30.93,9.9Zm-12.88,42L25.79,23A8.58,8.58,0,0,0,28,24.23L20.43,52.54a1.25,1.25,0,0,1-1.5.88h0a1.24,1.24,0,0,1-.87-1.52Zm53.71,7.62a8.63,8.63,0,0,0-12.37,0V16.08a6.19,6.19,0,0,1,12.37,0Z"/><path class="cls-1" d="M30.93,19.8a3.72,3.72,0,1,0-3.71-3.72,3.72,3.72,0,0,0,3.71,3.72Zm0-5a1.24,1.24,0,1,1-.47,2.38,1.24,1.24,0,0,1,.47-2.38Z"/></g></g></svg>
