<svg xmlns="http://www.w3.org/2000/svg" viewBox="0 0 71.2 71.2"><defs><style>.cls-1{fill:#727272;}</style></defs><g id="Capa_2" data-name="Capa 2"><g id="Capa_1-2" data-name="Capa 1"><path d="M69.81,68.42H63.69v-11a1.39,1.39,0,0,0-2.78,0v11H44.22V42a1.39,1.39,0,0,0-1.39-1.39H28.37A1.39,1.39,0,0,0,27,42V68.42H10.29V37h.54a1.38,1.38,0,0,0,1-.4L35.6,12.79l23.79,23.8a1.42,1.42,0,0,0,1,.4h.53V47.42a1.39,1.39,0,0,0,2.78,0V37h6.12a1.39,1.39,0,0,0,1-2.37L36.59.41a1.38,1.38,0,0,0-2,0L21.55,13.48a1.39,1.39,0,0,0,2,2L35.6,3.36,66.46,34.21H61L36.59,9.84a1.4,1.4,0,0,0-2,0L10.25,34.21H4.75l11-11a1.39,1.39,0,1,0-2-2L.41,34.62a1.37,1.37,0,0,0-.3,1.51A1.38,1.38,0,0,0,1.39,37H7.51V68.42H1.39a1.39,1.39,0,1,0,0,2.78H69.81a1.39,1.39,0,0,0,0-2.78Zm-40,0v-25H41.44v25Z"/></g></g></svg>
