<svg xmlns="http://www.w3.org/2000/svg" viewBox="0 0 89.37 89.37"><defs><style>.cls-1{fill:#727272;}</style></defs><g id="Capa_2" data-name="Capa 2"><g id="Capa_1-2" data-name="Capa 1"><path class="cls-1" d="M64.05,83.41H22.34a1.49,1.49,0,0,0-1.49,1.49v3a1.49,1.49,0,1,0,3,0V86.39H64.05a1.49,1.49,0,0,0,0-3Z"/><path class="cls-1" d="M32.77,37.24a1.49,1.49,0,0,0,1.49,1.49h6a1.49,1.49,0,0,0,1.49-1.49V28.3a1.49,1.49,0,0,0-1.49-1.49h-6a1.49,1.49,0,0,0-1.49,1.49Zm3-7.45h3v6h-3Z"/><path class="cls-1" d="M19.36,17.87H1.49A1.49,1.49,0,0,0,0,19.36V49.15a1.49,1.49,0,0,0,3,0V20.85H19.36a1.49,1.49,0,1,0,0-3Z"/><path class="cls-1" d="M71.5,73A1.49,1.49,0,0,0,73,74.48h6A1.49,1.49,0,0,0,80.43,73V64.05a1.49,1.49,0,0,0-1.49-1.49H73a1.49,1.49,0,0,0-1.49,1.49Zm3-7.45h3v6h-3Z"/><path class="cls-1" d="M7.45,53.62C.09,53.62,0,72.79,0,73a7.45,7.45,0,0,0,6,7.29v7.6a1.49,1.49,0,0,0,3,0v-7.6a7.46,7.46,0,0,0,6-7.29c0-.2-.09-19.37-7.45-19.37Zm0,23.84A4.47,4.47,0,0,1,3,73C3,65.57,5,56.6,7.45,56.6s4.47,9,4.47,16.39a4.48,4.48,0,0,1-4.47,4.47Z"/><path class="cls-1" d="M16.38,44.69H10.43a1.48,1.48,0,0,0-1.49,1.49v3a1.49,1.49,0,0,0,3,0V47.66h3v7.45a1.49,1.49,0,1,0,3,0V46.18a1.48,1.48,0,0,0-1.49-1.49Z"/><path class="cls-1" d="M73,38.73h6a1.49,1.49,0,0,0,1.49-1.49V28.3a1.49,1.49,0,0,0-1.49-1.49H73A1.49,1.49,0,0,0,71.5,28.3v8.94A1.49,1.49,0,0,0,73,38.73Zm1.49-8.94h3v6h-3Z"/><path class="cls-1" d="M16.38,26.81H10.43A1.49,1.49,0,0,0,8.94,28.3v8.94a1.49,1.49,0,0,0,1.49,1.49h5.95a1.49,1.49,0,0,0,1.49-1.49V28.3a1.49,1.49,0,0,0-1.49-1.49ZM14.9,35.75h-3v-6h3Z"/><path class="cls-1" d="M47.66,37.24a1.49,1.49,0,0,0,1.49,1.49h6a1.49,1.49,0,0,0,1.49-1.49V28.3a1.49,1.49,0,0,0-1.49-1.49h-6a1.49,1.49,0,0,0-1.49,1.49Zm3-7.45h3v6h-3Z"/><path class="cls-1" d="M87.88,17.87H70a1.49,1.49,0,0,0,0,3H86.39V80.71a4.29,4.29,0,0,0-1.49-.28,4.88,4.88,0,0,0-.76.07,6,6,0,0,0-10.39,0,4.88,4.88,0,0,0-.76-.07,4.47,4.47,0,1,0,0,8.94H84.9a4.47,4.47,0,0,0,4.47-4.47V19.36a1.49,1.49,0,0,0-1.49-1.49Zm-3,68.52H73a1.49,1.49,0,0,1,0-3,1.48,1.48,0,0,1,.8.25,1.5,1.5,0,0,0,2.26-.92,3,3,0,0,1,5.79,0,1.5,1.5,0,0,0,2.26.92,1.51,1.51,0,0,1,2.29,1.24,1.49,1.49,0,0,1-1.49,1.49Z"/><path class="cls-1" d="M49.15,20.85h6a1.49,1.49,0,0,0,1.49-1.49V10.43a1.49,1.49,0,0,0-1.49-1.49h-6a1.49,1.49,0,0,0-1.49,1.49v8.93a1.49,1.49,0,0,0,1.49,1.49Zm1.49-8.93h3v6h-3Z"/><path class="cls-1" d="M47.66,55.11a1.49,1.49,0,0,0,1.49,1.49h6a1.49,1.49,0,0,0,1.49-1.49V46.18a1.49,1.49,0,0,0-1.49-1.49h-6a1.49,1.49,0,0,0-1.49,1.49Zm3-7.45h3v6h-3Z"/><path class="cls-1" d="M34.26,20.85h6a1.49,1.49,0,0,0,1.49-1.49V10.43a1.49,1.49,0,0,0-1.49-1.49h-6a1.49,1.49,0,0,0-1.49,1.49v8.93a1.49,1.49,0,0,0,1.49,1.49Zm1.49-8.93h3v6h-3Z"/><path class="cls-1" d="M43.63,71.93a1.5,1.5,0,1,0,2.11,0,1.55,1.55,0,0,0-2.11,0Z"/><path class="cls-1" d="M32.77,55.11a1.49,1.49,0,0,0,1.49,1.49h6a1.49,1.49,0,0,0,1.49-1.49V46.18a1.49,1.49,0,0,0-1.49-1.49h-6a1.49,1.49,0,0,0-1.49,1.49Zm3-7.45h3v6h-3Z"/><path class="cls-1" d="M29.79,64.05a1.49,1.49,0,0,0,1.49,1.49h4.47v13.4a1.49,1.49,0,0,0,3,0V65.54H50.64v13.4a1.49,1.49,0,0,0,3,0V65.54h4.47a1.49,1.49,0,0,0,0-3H31.28a1.49,1.49,0,0,0-1.49,1.49Z"/><path class="cls-1" d="M71.5,55.11A1.49,1.49,0,0,0,73,56.6h6a1.49,1.49,0,0,0,1.49-1.49V46.18a1.48,1.48,0,0,0-1.49-1.49H73a1.48,1.48,0,0,0-1.49,1.49Zm3-7.45h3v6h-3Z"/><path class="cls-1" d="M64.05,0H25.32a1.49,1.49,0,0,0-1.49,1.49V78.94a1.49,1.49,0,0,0,3,0V3H62.56v76a1.49,1.49,0,0,0,3,0V1.49A1.49,1.49,0,0,0,64.05,0Z"/></g></g></svg>