<svg xmlns="http://www.w3.org/2000/svg" viewBox="0 0 94.9 72.11"><defs><style>.cls-1{fill:#727272;}</style></defs><g id="Capa_2" data-name="Capa 2"><g id="Capa_1-2" data-name="Capa 1"><path class="cls-1" d="M87.54,35.37H83.12V23.68A10.33,10.33,0,0,0,72.8,13.36H61a4.42,4.42,0,0,0-4.42,4.42V45.59H32.13a1.47,1.47,0,1,0,0,2.94H58.06a1.47,1.47,0,0,0,1.48-1.47V17.78A1.47,1.47,0,0,1,61,16.31H72.8a7.38,7.38,0,0,1,7.37,7.37V36.84a1.47,1.47,0,0,0,1.47,1.48h5.9A4.43,4.43,0,0,1,92,42.74V56.59H90.15a11.29,11.29,0,0,0-21,0H58.71a11.29,11.29,0,0,0-21,0H35.14a11.3,11.3,0,0,0-21,0H11.59V48.53H24.27a1.47,1.47,0,0,0,0-2.94H10.12a1.47,1.47,0,0,0-1.47,1.47v11a1.47,1.47,0,0,0,1.47,1.48h3.32a10.69,10.69,0,0,0-.08,1.27,11.3,11.3,0,0,0,22.6,0,10.69,10.69,0,0,0-.08-1.27H37c0,.42-.07.84-.07,1.27a11.3,11.3,0,1,0,22.6,0,10.69,10.69,0,0,0-.08-1.27h9a10.69,10.69,0,0,0-.07,1.27,11.3,11.3,0,1,0,22.59,0,10.69,10.69,0,0,0-.07-1.27h2.53a1.47,1.47,0,0,0,1.47-1.48V42.74A7.37,7.37,0,0,0,87.54,35.37ZM24.66,69.16A8.35,8.35,0,1,1,33,60.81,8.35,8.35,0,0,1,24.66,69.16Zm23.58,0a8.35,8.35,0,1,1,8.35-8.35A8.35,8.35,0,0,1,48.24,69.16Zm31.44,0A8.35,8.35,0,1,1,88,60.81,8.35,8.35,0,0,1,79.68,69.16Z"/><path class="cls-1" d="M62.78,38.32H76.93a1.47,1.47,0,0,0,1.47-1.48V23.68a5.6,5.6,0,0,0-5.6-5.6h-10a1.47,1.47,0,0,0-1.48,1.47V36.84A1.48,1.48,0,0,0,62.78,38.32ZM64.25,21H72.8a2.66,2.66,0,0,1,2.65,2.66V35.37H64.25Z"/><path class="cls-1" d="M62.78,42.64h4.71a1.48,1.48,0,1,0,0-3H62.78a1.48,1.48,0,1,0,0,3Z"/><path class="cls-1" d="M79.68,54.23a6.59,6.59,0,1,0,6.58,6.58A6.59,6.59,0,0,0,79.68,54.23Zm0,10.22a3.64,3.64,0,1,1,3.63-3.64A3.64,3.64,0,0,1,79.68,64.45Z"/><path class="cls-1" d="M48.24,54.23a6.59,6.59,0,1,0,6.58,6.58A6.59,6.59,0,0,0,48.24,54.23Zm0,10.22a3.64,3.64,0,1,1,3.63-3.64A3.64,3.64,0,0,1,48.24,64.45Z"/><path class="cls-1" d="M24.66,54.23a6.59,6.59,0,1,0,6.58,6.58A6.59,6.59,0,0,0,24.66,54.23Zm0,10.22a3.64,3.64,0,1,1,3.63-3.64A3.65,3.65,0,0,1,24.66,64.45Z"/><path class="cls-1" d="M10.12,43.82H44.31a1.46,1.46,0,0,0,1.39-1l11-32h6.05a1.47,1.47,0,0,0,1.47-1.48V1.47A1.47,1.47,0,0,0,62.78,0h-5.5a1.48,1.48,0,1,0,0,3h4V7.86H3V3H49.42a1.48,1.48,0,0,0,0-2.95H1.47A1.47,1.47,0,0,0,0,1.47V9.33a1.47,1.47,0,0,0,1.47,1.48h2.6L8.66,42.55A1.48,1.48,0,0,0,10.12,43.82Zm43.49-33L43.26,40.87H11.4L7.05,10.81Z"/><path class="cls-1" d="M29,36.35a1.47,1.47,0,0,0,1.48-1.47V17.59a1.48,1.48,0,1,0-2.95,0V34.88A1.47,1.47,0,0,0,29,36.35Z"/><path class="cls-1" d="M37.91,36.26a1.48,1.48,0,0,0,1.89-.88l6.29-17.29a1.48,1.48,0,0,0-.89-1.89,1.46,1.46,0,0,0-1.88.88L37,34.37A1.48,1.48,0,0,0,37.91,36.26Z"/><path class="cls-1" d="M16.53,35.14a1.47,1.47,0,0,0,2.9-.53L16.28,17.32a1.47,1.47,0,1,0-2.89.53Z"/></g></g></svg>