<svg xmlns="http://www.w3.org/2000/svg" viewBox="0 0 93.48 92.66"><defs><style>.cls-1{fill:#727272;}</style></defs><g id="Capa_2" data-name="Capa 2"><g id="Capa_1-2" data-name="Capa 1"><path class="cls-1" d="M0,86.65c.12-1.48.25-3,.37-4.44.08-.93.61-1.49,1.41-1.48A1.33,1.33,0,0,1,3.1,82.26c-.07,1.67-.2,3.34-.32,5-.15,2.12.31,2.63,2.41,2.63h7.44V64.12a11.94,11.94,0,0,0-8.79,9.2,28.73,28.73,0,0,0-.35,3.08c-.1,1-.6,1.55-1.46,1.5S.73,77.25.75,76.25A15.06,15.06,0,0,1,11.29,61.6q9.11-3.23,18.21-6.45a3,3,0,0,1,2.71.12,1.21,1.21,0,0,0,.84.09c1.26-.36,2.51-.73,3.73-1.18.25-.09.39-.48.57-.75,0-.06,0-.18,0-.27a4.21,4.21,0,0,0-1.84-4.28A17.81,17.81,0,0,1,29,36.51c-.23,0-.47,0-.7-.09a3.59,3.59,0,0,1-3-3.31c0-1.54.06-3.09.07-4.64a.94.94,0,0,0-.3-.65,3.06,3.06,0,0,1-1.07-2.51c0-.58,0-1.16,0-1.73a2.63,2.63,0,0,1,1.6-2.46c.6-.25.69-.6.71-1.17a17.64,17.64,0,0,1,8.5-15,15.53,15.53,0,0,1,6.18-2.33,1.86,1.86,0,0,0,1.39-.85A3.79,3.79,0,0,1,45.11.1a11.85,11.85,0,0,1,3.26,0,3.85,3.85,0,0,1,2.28,1.16,4.56,4.56,0,0,0,3.08,1.59,17.29,17.29,0,0,1,9.8,6.42c.7.91.68,1.71,0,2.23s-1.43.32-2.1-.54a15,15,0,0,0-8.48-5.5c-.2,0-.41-.06-.75-.11,0,1.63,0,3.2,0,4.77,0,2.3-1.24,4.14-3.31,4.57a11.08,11.08,0,0,1-4.14,0,4.38,4.38,0,0,1-3.37-4.53c0-1.58,0-3.15,0-4.89-.76.2-1.4.33-2,.53A15.27,15.27,0,0,0,29,19.93c0,.57,0,1.15,0,1.73,0,1.42-.36,1.79-1.75,1.88l-.49.06v2h40v-2a.42.42,0,0,0-.14-.09c-1.92-.21-2-.4-2.11-2.3s-.35-3.56-.61-5.32c-.14-1,.12-1.68.92-1.91a1.34,1.34,0,0,1,1.71,1.19c.31,1.63.48,3.29.76,4.94a1.28,1.28,0,0,0,.56.84,2.93,2.93,0,0,1,1.72,2.69,12.3,12.3,0,0,1,0,1.92,2.5,2.5,0,0,1-.51,1.5,2.57,2.57,0,0,0-.75,2.56c.07.75,0,1.52,0,2.28,0,2.89-.91,4-3.78,4.58a17,17,0,0,1-2.86,8.14,19.07,19.07,0,0,1-4.91,5.22,1.31,1.31,0,0,0-.62,1.29c.07.93-.24,2.1.21,2.74s1.62.65,2.49.93a7.87,7.87,0,0,0,1.39.41,6.17,6.17,0,0,0,1.27-.11,5.81,5.81,0,0,1,2.1-.11c6.49,2.23,13,4.4,19.41,6.86s9.44,7.5,9.75,14.28c.15,3.25.39,6.5.59,9.75a5.44,5.44,0,0,0,.15.7v2.56c-.91,2.62-2.83,3.46-5.51,3.45q-41.37-.07-82.73,0c-.34,0-.67,0-1,0a3.94,3.94,0,0,1-2.93-1.27A16.54,16.54,0,0,1,0,89.21Zm67.71,3.2V65.76c0-1.89,0-3.78,0-5.66a2.77,2.77,0,0,0-.24-.81,3,3,0,0,0-.82.41c-.71.67-1.36,1.39-2,2.08a25.24,25.24,0,0,1-28,5.28A29,29,0,0,1,27,59.83a3.67,3.67,0,0,0-.95-.54,3.94,3.94,0,0,0-.24,1q0,14.33,0,28.65c0,.29,0,.58,0,.91Zm-36-61.38c0,2.16.07,4.23,0,6.29A14.65,14.65,0,0,0,35.44,45a14,14,0,0,0,11.69,5.5A15.63,15.63,0,0,0,61.48,38a53.69,53.69,0,0,0,.27-7.73c0-.6,0-1.2,0-1.83ZM80.85,64v25.8c.29,0,.53,0,.76,0,2.38,0,4.75,0,7.12,0,1.5,0,2.08-.62,2-2.15-.18-3.06-.35-6.13-.59-9.19a34.54,34.54,0,0,0-.7-6C88.27,68.17,85.26,65.43,80.85,64ZM23,60.36c-2.32.81-4.51,1.62-6.73,2.35a1.08,1.08,0,0,0-.86,1.23c0,8.33,0,16.65,0,25,0,.3,0,.59.05.9H23Zm47.49,0V89.89c2.21,0,4.36,0,6.51,0,.87,0,1.06-.25,1-1.07,0-6.14,0-12.28,0-18.42,0-2.22,0-4.44,0-6.66a1.13,1.13,0,0,0-.49-.88C75.23,62,72.91,61.22,70.5,60.36ZM40.09,52v1.74c0,1.85-.47,2.47-2.24,3l-3,1c6.94,6.31,18,5.61,23.78,0l-3.13-1a2.5,2.5,0,0,1-2.09-2.79c0-.64,0-1.29,0-2C47.65,53.46,46.53,53.81,40.09,52Zm24,6.2c-.79-.49-1.42-.64-2.17.21a19.22,19.22,0,0,1-5.73,4.3,21,21,0,0,1-24.71-4.27c-.88-.92-1.13-.91-2.15-.15A22.51,22.51,0,0,0,64.13,58.18ZM44.06,7.5v2.55c0,1.5.7,2.14,2.21,2.17h1a1.9,1.9,0,0,0,2.14-2.14c0-1.39,0-2.79,0-4.19,0-2.82-.49-3.29-3.3-3.18a1.9,1.9,0,0,0-2,2.06C44,5.68,44.07,6.59,44.06,7.5ZM29,28.52l-.34-.19c-.22.36-.62.7-.65,1.07-.08,1.12-.05,2.25,0,3.38a.8.8,0,0,0,1,.86Zm35.6,5.17c.68,0,1-.37,1-1,0-1.1,0-2.19,0-3.28,0-.61-.34-.92-1-1Z"/></g></g></svg>