<svg xmlns="http://www.w3.org/2000/svg" viewBox="0 0 74.64 74.64"><defs><style>.cls-1{fill:#727272;}</style></defs><g id="Capa_2" data-name="Capa 2"><g id="Capa_1-2" data-name="Capa 1"><path class="" d="M27.37,46a1.25,1.25,0,0,0,1.24,1.24h5A1.25,1.25,0,0,0,34.83,46V38.56a1.25,1.25,0,0,0-1.24-1.24h-5a1.25,1.25,0,0,0-1.24,1.24Zm2.49-6.22h2.48v5H29.86Z"/><path class="cls-1" d="M28.61,32.34h5a1.24,1.24,0,0,0,1.24-1.24V23.64a1.25,1.25,0,0,0-1.24-1.25h-5a1.25,1.25,0,0,0-1.24,1.25V31.1a1.24,1.24,0,0,0,1.24,1.24Zm1.25-7.46h2.48v5H29.86Z"/><path class="cls-1" d="M19.3,23.46l18-10.81,18,10.81a1.24,1.24,0,0,0,.64.18A1.26,1.26,0,0,0,57.05,23a1.24,1.24,0,0,0-.43-1.7L38.56,10.49v-8h6.22V5H41.05a1.24,1.24,0,1,0,0,2.48h5a1.24,1.24,0,0,0,1.24-1.24v-5A1.25,1.25,0,0,0,46,0H37.32a1.24,1.24,0,0,0-1.24,1.24v9.25L18,21.33a1.24,1.24,0,0,0-.43,1.7,1.25,1.25,0,0,0,1.71.43Z"/><path class="cls-1" d="M13.68,47.27A1.25,1.25,0,0,0,14.93,46V38.56a1.25,1.25,0,0,0-1.25-1.24h-5a1.25,1.25,0,0,0-1.25,1.24v2.49a1.25,1.25,0,1,0,2.49,0V39.81h2.49V46a1.25,1.25,0,0,0,1.24,1.24Z"/><path class="cls-1" d="M22.39,63.44V27.37a1.25,1.25,0,1,0-2.49,0V63.44a1.25,1.25,0,1,0,2.49,0Z"/><path class="cls-1" d="M16.17,69.66h42.3a1.24,1.24,0,1,0,0-2.48H47.27V54.74h1.25a1.25,1.25,0,0,0,0-2.49H26.12a1.25,1.25,0,0,0,0,2.49h1.25V67.18H16.17a1.24,1.24,0,0,0,0,2.48ZM38.56,62.2a1.25,1.25,0,1,0,0-2.49v-5h6.22V67.18H38.56Zm-8.7-7.46h6.22v5a1.25,1.25,0,1,0,0,2.49v5H29.86Z"/><path class="cls-1" d="M65.93,53.49H61a1.25,1.25,0,0,0-1.25,1.25V62.2A1.24,1.24,0,0,0,61,63.44h5a1.24,1.24,0,0,0,1.25-1.24V54.74a1.25,1.25,0,0,0-1.25-1.25ZM64.69,61H62.2V56h2.49Z"/><path class="cls-1" d="M65.93,38.56H61a1.25,1.25,0,0,0-1.25,1.25v7.46A1.25,1.25,0,0,0,61,48.52h5a1.25,1.25,0,0,0,1.25-1.25V39.81a1.25,1.25,0,0,0-1.25-1.25ZM64.69,46H62.2v-5h2.49Z"/><path class="cls-1" d="M63.44,72.15H11.2a1.25,1.25,0,1,0,0,2.49H63.44a1.25,1.25,0,1,0,0-2.49Z"/><path class="cls-1" d="M73.4,27.37a1.25,1.25,0,0,0-1.25,1.24v1.25H58.47a1.24,1.24,0,1,0,0,2.48H72.15V73.4a1.25,1.25,0,0,0,2.49,0V28.61a1.25,1.25,0,0,0-1.24-1.24Z"/><path class="cls-1" d="M39.81,46a1.25,1.25,0,0,0,1.24,1.24h5A1.25,1.25,0,0,0,47.27,46V38.56A1.25,1.25,0,0,0,46,37.32h-5a1.25,1.25,0,0,0-1.24,1.24Zm2.49-6.22h2.48v5H42.3Z"/><path class="cls-1" d="M12.44,61c0-.17-.07-16.18-6.22-16.18S0,60.79,0,61a6.23,6.23,0,0,0,5,6.09V73.4a1.24,1.24,0,0,0,2.48,0V67.05a6.23,6.23,0,0,0,5-6.09ZM6.22,64.69A3.74,3.74,0,0,1,2.49,61c0-6.2,1.66-13.69,3.73-13.69S10,54.76,10,61a3.74,3.74,0,0,1-3.73,3.73Z"/><path class="cls-1" d="M54.74,63.44V26.12a1.25,1.25,0,0,0-2.49,0V63.44a1.25,1.25,0,1,0,2.49,0Z"/><path class="cls-1" d="M41.05,32.34h5a1.24,1.24,0,0,0,1.24-1.24V23.64A1.25,1.25,0,0,0,46,22.39h-5a1.25,1.25,0,0,0-1.24,1.25V31.1a1.24,1.24,0,0,0,1.24,1.24Zm1.25-7.46h2.48v5H42.3Z"/><path class="cls-1" d="M1.24,43.54A1.25,1.25,0,0,0,2.49,42.3v-10H16.17a1.24,1.24,0,1,0,0-2.48H2.49V28.61a1.25,1.25,0,0,0-2.49,0V42.3a1.25,1.25,0,0,0,1.24,1.24Z"/></g></g></svg>
