<svg xmlns="http://www.w3.org/2000/svg" viewBox="0 0 71.61 74.67"><defs><style>.cls-1{fill:#727272;}</style></defs><g id="Capa_2" data-name="Capa 2"><g id="Capa_1-2" data-name="Capa 1"><path class="" d="M60.12,39.25V33.61A7.64,7.64,0,0,0,67.55,26V21.25a2.4,2.4,0,0,0,2.38-2.39V13.19a2.4,2.4,0,0,0-2.39-2.4H65.27V1.46a1.46,1.46,0,1,0-2.91,0v9.33H55V1.46a1.46,1.46,0,1,0-2.91,0v9.33H49.8a2.41,2.41,0,0,0-2.4,2.4v5.67a2.4,2.4,0,0,0,2.38,2.39V26a7.64,7.64,0,0,0,7.43,7.64v5.64a13,13,0,0,0,0,25.74v1.15a5.61,5.61,0,0,1-5.61,5.61h-26A5.61,5.61,0,0,1,20,66.14V62H33a4,4,0,0,0,4-4V40.79a1.46,1.46,0,0,0-2.92,0V58A1.1,1.1,0,0,1,33,59.1H4A1.1,1.1,0,0,1,2.92,58V10.47A1.1,1.1,0,0,1,4,9.38H33a1.1,1.1,0,0,1,1.08,1.09V27.69a1.46,1.46,0,1,0,2.92,0V10.47a4,4,0,0,0-4-4H30.23V4.69A4.69,4.69,0,0,0,25.55,0H11.44A4.69,4.69,0,0,0,6.75,4.69V6.47H4a4,4,0,0,0-4,4V58a4,4,0,0,0,4,4H17v4.13a8.54,8.54,0,0,0,8.53,8.53h26a8.54,8.54,0,0,0,8.52-8.53V65a13,13,0,0,0,0-25.74ZM9.67,4.69a1.77,1.77,0,0,1,1.77-1.77H25.55a1.77,1.77,0,0,1,1.77,1.77V6.47H9.67Zm40.65,9H67v4.62H50.32ZM52.7,26V21.25H64.63V26a4.72,4.72,0,0,1-4.71,4.73H57.41A4.72,4.72,0,0,1,52.7,26Zm6,36.19a10,10,0,1,1,10-10,10.05,10.05,0,0,1-10,10Z"/><path class="cls-1" d="M61.07,50.66H58.61l2-3.91A1.46,1.46,0,1,0,58,45.45l-3,6a1.47,1.47,0,0,0,1.31,2.1h2.46l-1.94,3.92a1.46,1.46,0,0,0,.66,2,1.43,1.43,0,0,0,.64.15,1.46,1.46,0,0,0,1.31-.81l3-6c0-.06,0-.12.07-.17a1.48,1.48,0,0,0-1.38-1.94Z"/><path class="cls-1" d="M7.58,12.59a1.46,1.46,0,0,0-1.46,1.46V54.43a1.46,1.46,0,0,0,1.46,1.46H29.41a1.46,1.46,0,0,0,1.46-1.46V14.05a1.46,1.46,0,0,0-1.46-1.46ZM28,53H9V46H28Zm0-9.91H9v-6.5H28Zm0-9.42H9V26.28H28Zm0-10.28H9V15.51H28Z"/><path class="cls-1" d="M35.53,32.78a1.47,1.47,0,0,0-1.46,1.46h0a1.46,1.46,0,1,0,1.46-1.47Z"/></g></g></svg>
