<svg xmlns="http://www.w3.org/2000/svg" viewBox="0 0 81.1 81.06"><defs><style>.cls-1{fill:#727272;}</style></defs><g id="Capa_2" data-name="Capa 2"><g id="Capa_1-2" data-name="Capa 1"><path class="" d="M79.76,78.39H74.07l-.57-24,4.74-5.26a1.34,1.34,0,0,0,.34-.89V43.91a1.33,1.33,0,0,0-2.12-1.07l-3.18,2.31L73,33.34a13.87,13.87,0,0,0,4.18-21.92A8.27,8.27,0,0,0,63,3.19a10.27,10.27,0,0,0-3.68-.65,10.81,10.81,0,0,0-10.8,10.74,9,9,0,1,0,7.7,16.32,13.86,13.86,0,0,0,10.18,5.09l-1,43.7H58.77V68.54h1.32a1.33,1.33,0,0,0,1.33-1.34V60.72a1.33,1.33,0,0,0-1.33-1.33h-4V48h1.72a1.34,1.34,0,0,0,1.34-1.34V39a1.33,1.33,0,0,0-1.34-1.33H3.61A1.33,1.33,0,0,0,2.27,39v7.57A1.34,1.34,0,0,0,3.61,48H5.32V59.39h-4A1.34,1.34,0,0,0,0,60.72V67.2a1.34,1.34,0,0,0,1.33,1.34H2.65v9.85H1.33a1.34,1.34,0,0,0,0,2.67H79.76a1.34,1.34,0,0,0,0-2.67ZM75.91,46.54v1.22l-2.5,2.78,0-2.14ZM57.67,27.07a1.33,1.33,0,0,0-1.9-.34,6.36,6.36,0,0,1-10.13-5.12,6.39,6.39,0,0,1,4.63-6.12,1.33,1.33,0,0,0,1-1.4,6.28,6.28,0,0,1,0-.75,8.13,8.13,0,0,1,8.13-8.13A7.94,7.94,0,0,1,62.91,6a1.33,1.33,0,0,0,1.75-.53A5.6,5.6,0,1,1,74.41,11a1.32,1.32,0,0,0,.25,1.63,11.19,11.19,0,0,1-1.73,17.67l-.31-13.12a2.9,2.9,0,0,0-5.8,0L66.69,23l-9.95-5.58a1.33,1.33,0,0,0-1.31,2.32L66.61,26l-.14,6a11.21,11.21,0,0,1-8.8-5Zm11.82-9.79a.23.23,0,0,1,.46,0l.73,30.49h0l.73,30.61H68ZM56.1,78.39H54.39V68.54H56.1Zm-4.38-9.85v3.59h-42V68.54Zm-42,6.26h42v3.59h-42ZM53.43,59.39H51.72V48h1.71Zm-41,0V48H49.05V59.39Zm-7.44-19H56.49v4.9H4.94ZM8,48H9.71V59.39H8ZM2.67,62.06H58.75v3.81H2.67Zm2.65,6.48H7v9.85H5.32Z"/></g></g></svg>
