<?xml version="1.0" encoding="UTF-8" standalone="no"?>
<svg
   xmlns:dc="http://purl.org/dc/elements/1.1/"
   xmlns:cc="http://creativecommons.org/ns#"
   xmlns:rdf="http://www.w3.org/1999/02/22-rdf-syntax-ns#"
   xmlns:svg="http://www.w3.org/2000/svg"
   xmlns="http://www.w3.org/2000/svg"
   xmlns:sodipodi="http://sodipodi.sourceforge.net/DTD/sodipodi-0.dtd"
   xmlns:inkscape="http://www.inkscape.org/namespaces/inkscape"
   inkscape:version="1.0 (4035a4fb49, 2020-05-01)"
   sodipodi:docname="vivienda.svg"
   id="svg3995"
   version="1.1"
   viewBox="0 0 71.2 71.2">
  <metadata
     id="metadata3999">
    <rdf:RDF>
      <cc:Work
         rdf:about="">
        <dc:format>image/svg+xml</dc:format>
        <dc:type
           rdf:resource="http://purl.org/dc/dcmitype/StillImage" />
      </cc:Work>
    </rdf:RDF>
  </metadata>
  <sodipodi:namedview
     inkscape:current-layer="svg3995"
     inkscape:window-maximized="1"
     inkscape:window-y="-8"
     inkscape:window-x="-8"
     inkscape:cy="35.599998"
     inkscape:cx="35.599998"
     inkscape:zoom="8.1179779"
     showgrid="false"
     id="namedview3997"
     inkscape:window-height="1028"
     inkscape:window-width="1680"
     inkscape:pageshadow="2"
     inkscape:pageopacity="0"
     guidetolerance="10"
     gridtolerance="10"
     objecttolerance="10"
     borderopacity="1"
     bordercolor="#666666"
     pagecolor="#ffffff" />
  <defs
     id="defs3989">
    <style
       id="style3987">.cls-1{fill:#727272;}</style>
  </defs>
  <g
     style="fill:#22b496;fill-opacity:1"
     data-name="Capa 2"
     id="Capa_2">
    <g
       style="fill:#22b496;fill-opacity:1"
       data-name="Capa 1"
       id="Capa_1-2">
      <path
         style="fill:#22b496;fill-opacity:1"
         id="path3991"
         d="M69.81,68.42H63.69v-11a1.39,1.39,0,0,0-2.78,0v11H44.22V42a1.39,1.39,0,0,0-1.39-1.39H28.37A1.39,1.39,0,0,0,27,42V68.42H10.29V37h.54a1.38,1.38,0,0,0,1-.4L35.6,12.79l23.79,23.8a1.42,1.42,0,0,0,1,.4h.53V47.42a1.39,1.39,0,0,0,2.78,0V37h6.12a1.39,1.39,0,0,0,1-2.37L36.59.41a1.38,1.38,0,0,0-2,0L21.55,13.48a1.39,1.39,0,0,0,2,2L35.6,3.36,66.46,34.21H61L36.59,9.84a1.4,1.4,0,0,0-2,0L10.25,34.21H4.75l11-11a1.39,1.39,0,1,0-2-2L.41,34.62a1.37,1.37,0,0,0-.3,1.51A1.38,1.38,0,0,0,1.39,37H7.51V68.42H1.39a1.39,1.39,0,1,0,0,2.78H69.81a1.39,1.39,0,0,0,0-2.78Zm-40,0v-25H41.44v25Z" />
    </g>
  </g>
</svg>
