<?xml version="1.0" encoding="UTF-8" standalone="no"?>
<!-- Generator: Adobe Illustrator 16.0.0, SVG Export Plug-In . SVG Version: 6.00 Build 0)  -->

<svg
   xmlns:dc="http://purl.org/dc/elements/1.1/"
   xmlns:cc="http://creativecommons.org/ns#"
   xmlns:rdf="http://www.w3.org/1999/02/22-rdf-syntax-ns#"
   xmlns:svg="http://www.w3.org/2000/svg"
   xmlns="http://www.w3.org/2000/svg"
   xmlns:sodipodi="http://sodipodi.sourceforge.net/DTD/sodipodi-0.dtd"
   xmlns:inkscape="http://www.inkscape.org/namespaces/inkscape"
   version="1.1"
   id="Capa_1"
   x="0px"
   y="0px"
   width="130px"
   height="115px"
   viewBox="0 0 130 115"
   enable-background="new 0 0 130 115"
   xml:space="preserve"
   sodipodi:docname="canvas - copia (2).svg"
   inkscape:version="0.92.4 (5da689c313, 2019-01-14)"><metadata
   id="metadata13"><rdf:RDF><cc:Work
       rdf:about=""><dc:format>image/svg+xml</dc:format><dc:type
         rdf:resource="http://purl.org/dc/dcmitype/StillImage" /></cc:Work></rdf:RDF></metadata><defs
   id="defs11" /><sodipodi:namedview
   pagecolor="#ffffff"
   bordercolor="#666666"
   borderopacity="1"
   objecttolerance="10"
   gridtolerance="10"
   guidetolerance="10"
   inkscape:pageopacity="0"
   inkscape:pageshadow="2"
   inkscape:window-width="1300"
   inkscape:window-height="745"
   id="namedview9"
   showgrid="false"
   inkscape:zoom="2.0521739"
   inkscape:cx="-4.1949152"
   inkscape:cy="57.5"
   inkscape:window-x="-8"
   inkscape:window-y="-8"
   inkscape:window-maximized="1"
   inkscape:current-layer="Capa_1" />

<g
   id="Layer_2"
   data-name="Layer 2"
   transform="matrix(0.28622933,0,0,0.26140252,31.345174,25.497712)"
   style="fill:#bf0000;fill-opacity:1"><g
     id="Layer_1-2"
     data-name="Layer 1"
     style="fill:#bf0000;fill-opacity:1"><path
       class="cls-1"
       d="m 90.67,235.53 c -4.32,-1.78 -7.94,-4.25 -9,-9.23 -0.34,-1.62 -1.38,-2.23 -3,-2.32 -5.07,-0.3 -4.63,-2.89 -3.34,-6.78 a 52.78,52.78 0 0 0 0.13,-33 c -1.81,-5.79 -1.45,-7 4.95,-7.06 14.39,0 28.77,0 43.16,0 6.93,0 13.87,-0.08 20.8,0 8.87,0.14 13.34,4.58 13.54,13.53 q 0.22,9.87 0,19.76 c -0.14,6.28 -0.07,12.51 2.64,18.33 1.21,2.61 0.29,4.65 -1.15,6.7 h -16.62 c -2.47,-4.42 -5.2,-6.91 -9.41,-1.61 -0.66,0.83 -2,1.09 -3.1,1.61 h -3.13 c -1.75,-1.07 -3.72,-1.9 -5.19,-3.27 -1.85,-1.71 -3.08,-1.47 -4.78,0.14 a 32.56,32.56 0 0 1 -4.62,3.13 h -4.17 c -4.2,-4.09 -8.59,-5.46 -13.42,-1 -0.37,0.35 -0.78,0.65 -1.17,1 z m 25.26,-52 c -9.55,0 -19.11,0 -28.66,0 -1.39,0 -3.56,-0.55 -3.57,1.81 -0.01,2.36 1.8,2.61 3.72,2.59 5.38,0 10.77,0 16.15,0 5.56,0 11.12,0 16.67,0.05 2.26,0 4.35,0.93 4.23,3.54 -0.1,2.24 -2,3.08 -4.11,3.12 -1.22,0 -2.43,0 -3.65,0 -9.21,0 -18.42,0.18 -27.61,-0.08 -4,-0.11 -5.2,1.23 -5,5.06 0.28,4.32 0.69,8.81 -0.14,13 -1,4.81 1.11,5 4.8,5 14.07,-0.12 28.14,0.16 42.2,-0.14 6.82,-0.14 12.85,-0.36 14.13,8.63 0.52,3.63 4.24,2.54 6.53,2.08 2.87,-0.58 1.16,-3.13 0.49,-4.13 -1.57,-2.32 1,-6.5 -3.2,-7.35 -2.12,-0.42 -4.51,-0.47 -4.66,-3.12 -0.17,-3.12 2.54,-3.23 4.77,-3.55 1.41,-0.2 2.23,-0.86 2.1,-2.39 -0.13,-1.53 -1.39,-1.8 -2.63,-1.82 -2.43,0 -4.86,-0.06 -7.29,0 -13.33,0.07 -11.94,0.58 -11.9,-13.4 0,-3 1.69,-4.42 4.57,-4.46 3.82,-0.06 7.65,0.13 11.46,-0.11 1.62,-0.1 4.55,1.29 4.62,-1.39 0.06,-2.27 -2.75,-2.74 -4.89,-2.91 -1.21,-0.1 -2.43,-0.07 -3.65,-0.07 z M 143,199.19 c 1.8,0 3.17,0 4.54,0 1.68,-0.06 3.68,0.21 3.61,-2.42 -0.07,-2.32 -1.9,-2 -3.38,-2.06 a 17.67,17.67 0 0 0 -4.61,0 c -2.45,0.57 -7,-2 -6.93,2.29 0.07,4.29 4.83,1.07 6.77,2.19 z M 110.39,224 c -1.26,0.23 -3.2,-0.51 -3.36,1.45 -0.16,1.96 1.51,2.74 3.13,2.82 1.85,0.1 3.71,-0.74 3.6,-2.83 -0.1,-1.96 -2.11,-1.24 -3.37,-1.44 z m -18.3,0 c -1.31,0.31 -3.53,-0.58 -3.32,1.88 0.15,1.71 1.77,2.5 3.44,2.4 1.67,-0.1 3.21,-1 3.14,-2.78 -0.08,-2.02 -2.03,-1.27 -3.27,-1.5 z m 36.61,0 c -1.2,0.31 -3.2,-0.55 -3.24,1.5 0,1.73 1.49,2.7 3.18,2.78 1.69,0.08 3.31,-0.74 3.44,-2.45 0.17,-2.5 -2.08,-1.52 -3.38,-1.83 z"
       id="path8"
       inkscape:connector-curvature="0"
       style="fill:#bf0000;fill-opacity:1" /><path
       class="cls-1"
       d="m 143.36,234.53 c -1.31,-2.25 -3.09,-4.61 -5.56,-4.61 -1.7,0 -3.41,1.1 -5.21,3.38 a 4.1,4.1 0 0 1 -1.6,0.85 c -0.32,0.12 -0.63,0.24 -0.93,0.38 h -2.62 c -0.48,-0.28 -1,-0.55 -1.45,-0.82 a 16.53,16.53 0 0 1 -3.33,-2.18 4.43,4.43 0 0 0 -3,-1.45 4.8,4.8 0 0 0 -3.15,1.59 17.09,17.09 0 0 1 -3,2.09 c -0.42,0.25 -0.84,0.51 -1.25,0.77 h -3.47 c -2.68,-2.53 -5.23,-3.76 -7.77,-3.76 a 10,10 0 0 0 -6.73,3.05 c -0.24,0.22 -0.49,0.42 -0.74,0.62 l -0.11,0.09 h -2.57 c -4.95,-2.08 -7.4,-4.61 -8.2,-8.43 -0.4,-1.94 -1.71,-3 -3.88,-3.12 -1.6,-0.09 -2.61,-0.43 -3,-1 -0.58,-0.85 0,-2.67 0.55,-4.46 A 53.59,53.59 0 0 0 76.48,184 c -0.77,-2.45 -1.18,-4.22 -0.69,-4.9 0.49,-0.68 2.79,-0.86 4.68,-0.86 q 9.52,0 19,0 H 136 c 3.27,0 6,0 8.44,0.06 8.38,0.14 12.37,4.13 12.56,12.55 0.15,6.4 0.15,13 0,19.71 -0.14,6.5 0,12.82 2.73,18.77 0.91,2 0.41,3.5 -0.77,5.28 z m -9.66,-16.05 c 6.2,0 9.53,1.21 10.46,7.81 a 3.72,3.72 0 0 0 4.11,3.46 15.09,15.09 0 0 0 3.1,-0.43 l 0.52,-0.11 a 2.8,2.8 0 0 0 2.24,-1.59 c 0.62,-1.51 -0.56,-3.24 -1.12,-4.08 a 4.81,4.81 0 0 1 -0.41,-2.59 c 0,-1.9 0,-4.49 -3.42,-5.18 l -0.82,-0.15 c -2.14,-0.37 -3,-0.65 -3,-2 -0.1,-1.79 0.91,-2.1 3.39,-2.43 l 0.52,-0.07 c 2.79,-0.4 3,-2.34 2.95,-3.46 -0.23,-2.67 -2.6,-2.72 -3.61,-2.74 q -2.65,-0.05 -5.3,0 h -5.71 c -3.6,0 -5.58,-0.15 -6.38,-1 -0.8,-0.85 -0.91,-3.4 -0.85,-7.84 0,-1.08 0,-2.28 0,-3.61 0,-2.36 1.11,-3.43 3.59,-3.46 h 6.69 c 1.93,0 3.42,0 4.81,-0.12 h 0.12 a 8.6,8.6 0 0 1 1.14,0.12 10.71,10.71 0 0 0 1.57,0.16 2.49,2.49 0 0 0 2.71,-2.67 c 0.09,-3.45 -4.35,-3.82 -5.81,-3.94 -0.82,-0.07 -1.64,-0.08 -2.33,-0.08 h -40.72 q -7.44,0 -14.88,0 v 0 H 86.61 85.8 c -2.56,0 -3.1,1.56 -3.1,2.86 a 3.34,3.34 0 0 0 0.91,2.47 5.2,5.2 0 0 0 3.7,1.13 h 0.11 6.37 10.89 6.81 c 2.56,0 5.61,0 8.73,0.06 a 3.89,3.89 0 0 1 2.76,0.89 2.09,2.09 0 0 1 0.5,1.61 c -0.06,1.4 -1.11,2.13 -3.12,2.16 -1.21,0 -2.42,0 -3.63,0 h -7.87 c -2.7,0 -5.39,0 -8.08,0 -4.52,0 -8.22,0 -11.63,-0.14 h -0.48 c -2.08,0 -3.47,0.45 -4.37,1.4 -0.9,0.95 -1.29,2.46 -1.14,4.73 l 0.08,1.13 c 0.26,3.89 0.53,7.91 -0.2,11.6 -0.46,2.33 -0.3,3.82 0.54,4.83 1,1.27 2.85,1.38 4.76,1.38 h 0.49 q 4.23,0 8.46,0 h 8.92 8.93 c 6.36,0 11.27,0 15.91,-0.14 h 0.21 c 0.82,0.05 1.64,0.03 2.43,0.03 z M 90.75,223 a 3.13,3.13 0 0 0 -2.42,0.76 2.65,2.65 0 0 0 -0.57,2.13 c 0.17,2 1.84,3.32 4.15,3.32 h 0.35 c 2.48,-0.15 4.16,-1.72 4.07,-3.82 -0.09,-2.4 -2.2,-2.4 -2.9,-2.4 h -0.52 a 3.39,3.39 0 0 1 -0.64,0 h -0.22 l -0.22,0.05 a 3.78,3.78 0 0 1 -0.77,0.05 z m 36.45,0 c -1.79,0 -2.71,0.81 -2.74,2.41 0,2.12 1.65,3.68 4.13,3.8 h 0.28 c 2.33,0 4.06,-1.39 4.2,-3.38 a 2.65,2.65 0 0 0 -0.59,-2.1 2.94,2.94 0 0 0 -2.22,-0.73 h -0.66 a 2.91,2.91 0 0 1 -0.6,0 l -0.25,-0.07 -0.25,0.07 a 2.7,2.7 0 0 1 -0.58,0 z m -18.28,0 a 2.5,2.5 0 0 0 -2.89,2.33 3.26,3.26 0 0 0 0.79,2.47 4.67,4.67 0 0 0 3.28,1.43 h 0.34 a 4.61,4.61 0 0 0 3.4,-1.27 3.45,3.45 0 0 0 0.91,-2.62 C 114.63,223 112.53,223 111.84,223 h -0.68 a 3.56,3.56 0 0 1 -0.59,0 h -0.18 -0.18 a 3.27,3.27 0 0 1 -0.55,0 z m 29.65,-29.55 a 3.28,3.28 0 0 0 -2.48,0.87 3.56,3.56 0 0 0 -0.85,2.71 c 0.06,2.14 1.14,3.28 3.12,3.28 v 0 a 12.12,12.12 0 0 0 1.92,-0.21 10.35,10.35 0 0 1 1.57,-0.18 1.33,1.33 0 0 1 0.65,0.12 l 0.23,0.13 h 3.2 c 0.57,0 1.1,0 1.64,0 h 0.5 a 4.35,4.35 0 0 0 3.28,-1 3.33,3.33 0 0 0 0.79,-2.49 c -0.09,-3 -2.5,-3 -3.8,-3 h -0.54 l -1.06,-0.06 c -0.6,0 -1.2,-0.08 -1.8,-0.08 a 8.89,8.89 0 0 0 -2,0.21 2.89,2.89 0 0 1 -0.64,0.06 13.45,13.45 0 0 1 -1.73,-0.17 15.1,15.1 0 0 0 -2,-0.17 z"
       id="path10"
       inkscape:connector-curvature="0"
       style="fill:#bf0000;fill-opacity:1" /><path
       class="cls-1"
       d="m 143.93,233.53 c -1.29,-2.11 -3.26,-4.61 -6.13,-4.61 -2,0 -4,1.23 -6,3.75 a 5.2,5.2 0 0 1 -1.17,0.54 l -0.8,0.32 h -2.13 l -1.25,-0.7 a 15.78,15.78 0 0 1 -3.14,-2 5.35,5.35 0 0 0 -3.68,-1.71 5.7,5.7 0 0 0 -3.84,1.87 16.39,16.39 0 0 1 -2.8,2 l -1,0.63 h -2.79 c -2.78,-2.53 -5.45,-3.76 -8.17,-3.76 a 10.9,10.9 0 0 0 -7.41,3.32 c -0.17,0.15 -0.34,0.3 -0.52,0.44 h -2 c -4.49,-1.92 -6.71,-4.21 -7.42,-7.64 A 4.76,4.76 0 0 0 78.84,222 c -1.9,-0.11 -2.22,-0.54 -2.23,-0.56 -0.23,-0.34 0,-1.55 0.67,-3.58 a 54.57,54.57 0 0 0 0.14,-34.18 c -0.89,-2.85 -0.94,-3.76 -0.82,-4 0.09,-0.06 0.72,-0.42 3.86,-0.43 q 9.52,0 19,0 H 136 c 3.29,0 6,0 8.42,0.06 7.83,0.13 11.4,3.7 11.58,11.58 0.15,6.38 0.15,13 0,19.67 -0.15,6.67 0,13.06 2.82,19.22 a 3.66,3.66 0 0 1 -0.42,3.86 z M 133.7,219.48 c 5.87,0 8.63,1 9.47,7 a 4.73,4.73 0 0 0 5.1,4.32 15.82,15.82 0 0 0 3.3,-0.46 l 0.51,-0.11 a 3.73,3.73 0 0 0 3,-2.19 c 0.82,-2 -0.61,-4.11 -1.22,-5 a 4.52,4.52 0 0 1 -0.24,-2 c 0,-1.86 0,-5.32 -4.22,-6.17 l -0.85,-0.16 c -2.17,-0.38 -2.18,-0.55 -2.21,-1.12 0,-0.82 -0.06,-1 2.53,-1.39 l 0.52,-0.07 c 2.6,-0.37 4,-2.07 3.81,-4.54 -0.19,-2.47 -1.74,-3.59 -4.58,-3.65 q -2.66,-0.05 -5.32,0 h -5.71 c -2.43,0 -5.06,-0.05 -5.67,-0.67 -0.61,-0.62 -0.61,-3.37 -0.56,-7.12 0,-1.14 0,-2.32 0,-3.62 0,-1.82 0.66,-2.44 2.6,-2.47 h 6.68 c 2,0 3.46,0 4.87,-0.12 h 0.08 a 8.33,8.33 0 0 1 1,0.11 11.62,11.62 0 0 0 1.72,0.17 3.47,3.47 0 0 0 3.73,-3.61 c 0.08,-2.92 -2.18,-4.59 -6.72,-5 -0.86,-0.07 -1.7,-0.08 -2.42,-0.08 h -40.76 q -7.44,0 -14.88,0 h -0.57 -0.88 c -2.56,0 -4.09,1.44 -4.1,3.86 a 4.3,4.3 0 0 0 1.21,3.18 6.1,6.1 0 0 0 4.41,1.42 h 0.11 6.37 10.89 6.81 c 2.56,0 5.6,0 8.71,0.06 a 3.08,3.08 0 0 1 2,0.57 1.1,1.1 0 0 1 0.22,0.88 c 0,0.35 -0.05,1.17 -2.14,1.21 -1.21,0 -2.41,0 -3.61,0 h -7.88 c -2.7,0 -5.39,0 -8.08,0 -4.51,0 -8.2,0 -11.6,-0.14 h -0.51 c -2.38,0 -4,0.55 -5.1,1.72 -1.1,1.17 -1.57,2.91 -1.41,5.48 l 0.08,1.13 c 0.26,3.83 0.52,7.78 -0.18,11.34 -0.52,2.65 -0.29,4.4 0.75,5.66 1.32,1.61 3.45,1.74 5.53,1.74 h 0.49 q 4.23,0 8.46,0 h 8.11 0.81 8.93 c 6.39,0 11.3,0 15.93,-0.14 h 0.21 c 0.89,0 1.69,-0.02 2.46,-0.02 z M 90.75,222 a 4.09,4.09 0 0 0 -3.15,1.08 3.63,3.63 0 0 0 -0.83,2.89 c 0.21,2.49 2.33,4.23 5.15,4.23 h 0.41 c 3,-0.19 5.12,-2.23 5,-4.86 0,-1.25 -0.62,-3.36 -3.9,-3.36 h -0.52 a 2.46,2.46 0 0 1 -0.43,0 l -0.44,-0.09 -0.43,0.1 a 3.27,3.27 0 0 1 -0.54,0 z m 36.45,0 c -2.33,0 -3.7,1.24 -3.74,3.39 -0.06,2.65 2.08,4.68 5.08,4.83 h 0.33 c 2.88,0 5,-1.77 5.2,-4.31 a 3.63,3.63 0 0 0 -0.85,-2.85 3.87,3.87 0 0 0 -3,-1.05 h -0.67 a 2.09,2.09 0 0 1 -0.39,0 l -0.5,-0.13 -0.5,0.13 a 2.33,2.33 0 0 1 -0.33,0 z m -18.28,0 c -3.15,0 -3.79,2 -3.89,3.25 a 4.24,4.24 0 0 0 1,3.21 5.67,5.67 0 0 0 4,1.77 h 0.38 a 5.6,5.6 0 0 0 4.14,-1.58 4.43,4.43 0 0 0 1.19,-3.36 c -0.06,-1.23 -0.66,-3.29 -3.91,-3.29 h -0.76 a 2,2 0 0 1 -0.33,0 L 110.38,221.93 110,222 a 1.84,1.84 0 0 1 -0.31,0 z m 29.65,-29.55 a 4.27,4.27 0 0 0 -3.2,1.17 4.5,4.5 0 0 0 -1.13,3.44 c 0.08,2.7 1.58,4.25 4.12,4.25 a 12.91,12.91 0 0 0 2.09,-0.23 10,10 0 0 1 1.41,-0.17 1,1 0 0 1 0.23,0 l 0.16,0.1 0.23,0.13 h 3.46 c 0.58,0 1.13,0 1.68,0 h 0.49 a 5.26,5.26 0 0 0 4,-1.26 4.28,4.28 0 0 0 1.07,-3.21 c -0.12,-4 -3.63,-4 -4.79,-4 h -0.51 l -1,-0.06 c -0.63,0 -1.25,-0.08 -1.87,-0.08 a 9.82,9.82 0 0 0 -2.25,0.23 1.89,1.89 0 0 1 -0.41,0 13.08,13.08 0 0 1 -1.6,-0.16 15.77,15.77 0 0 0 -2.18,-0.13 z"
       id="path12"
       inkscape:connector-curvature="0"
       style="fill:#bf0000;fill-opacity:1" /><path
       class="cls-1"
       d="m 133.4,0 c 2.14,1.94 2.5,4.47 2.29,7.13 -0.27,3.4 1.25,4.58 4.6,4.47 4.06,-0.13 7.94,-0.49 11.58,2.93 4.54,4.28 6.84,8.7 6.24,15 -0.5,5.33 -0.13,10.75 -0.1,16.13 0,3.27 -1.18,5.46 -4.82,5.29 -2.19,-0.1 -3.34,1 -4.63,2.64 -4.91,6.19 -12.43,6.3 -17.21,0.15 A 6.23,6.23 0 0 0 125.7,51 c -4.86,0.12 -9.72,0.09 -14.58,0 -4.65,-0.07 -8.72,-0.22 -12.26,4.4 -3.54,4.62 -11.08,3.6 -15.09,-1.14 -1.21,-1.43 -1.91,-3.4 -4.3,-3.24 -4.57,0.31 -5.45,-2.36 -5.41,-6.25 q 0.17,-19 0,-38 A 10.46,10.46 0 0 1 76.06,0 Z M 80.63,44.37 c 8.95,-9.27 13.05,-9.32 21.1,-1.11 a 4.65,4.65 0 0 0 3.7,1.37 c 6.6,0 13.19,0 19.79,0 2.73,0 4.15,-0.87 4.12,-3.91 -0.11,-10.07 -0.07,-20.14 0,-30.21 0,-2.31 -0.73,-3.52 -3.27,-3.51 -14.06,0.06 -28.12,0 -42.19,0 -1.73,0 -3.21,0.26 -3.22,2.4 -0.04,11.27 -0.03,22.49 -0.03,34.97 z m 62.1,-18.16 c 1.58,0 2.79,0.09 4,0 1.45,-0.14 3.37,0.7 4.17,-1.08 0.91,-2 -1.17,-3 -2.18,-4.25 a 7.54,7.54 0 0 0 -1.84,-1.8 c -3,-1.86 -6.34,-1.3 -9.53,-0.77 -2,0.33 -1.56,2.39 -1.62,3.87 -0.24,6.18 4.59,3.27 7,4.03 z m 8.53,16.89 c 0,-2.55 0,-5.1 0,-7.65 a 2.21,2.21 0 0 0 -2.52,-2.53 c -3.46,0 -6.92,0 -10.38,0 -1.33,0 -2.4,0.38 -2.45,2 -0.05,1.78 0.86,2.56 2.56,2.39 5.25,-0.53 8.79,2.26 12.79,5.79 z m -59.37,1.08 a 3.68,3.68 0 0 0 -3.54,3.68 3.34,3.34 0 0 0 3.45,3.73 3.4,3.4 0 0 0 3.89,-3.8 3.69,3.69 0 0 0 -3.8,-3.61 z m 47.68,0 a 3.74,3.74 0 0 0 -3.38,3.72 3.35,3.35 0 0 0 3.47,3.72 c 2.44,0.09 4,-1.38 3.88,-3.82 -0.12,-2.08 -1.54,-3.46 -3.97,-3.64 z"
       id="path14"
       inkscape:connector-curvature="0"
       style="fill:#bf0000;fill-opacity:1" /><path
       class="cls-1"
       d="M 92.43,57.44 A 10.66,10.66 0 0 1 84.54,53.62 C 84.3,53.33 84.08,53.02 83.86,52.71 83,51.51 81.94,50 79.74,50 H 79.4 78.77 a 3.59,3.59 0 0 1 -2.66,-0.84 c -0.75,-0.76 -1.08,-2.12 -1.06,-4.42 0.11,-11.84 0.11,-24.28 0,-38 A 9.58,9.58 0 0 1 76.59,1 H 133 c 1.39,1.41 1.91,3.3 1.69,6.06 a 5.26,5.26 0 0 0 1.06,4.17 5.35,5.35 0 0 0 4.13,1.39 h 0.43 0.74 c 0.74,0 1.48,-0.05 2.21,-0.05 3,0 5.51,0.47 7.92,2.74 4.68,4.41 6.45,8.66 5.93,14.19 a 99.43,99.43 0 0 0 -0.19,11.62 c 0,1.54 0.07,3.07 0.08,4.61 a 4.87,4.87 0 0 1 -1,3.49 3.3,3.3 0 0 1 -2.45,0.8 h -0.65 c -2.53,0 -3.88,1.43 -5.14,3 -2.21,2.79 -5,4.32 -8,4.32 A 9.8,9.8 0 0 1 132.09,53.17 7.21,7.21 0 0 0 125.95,50 h -0.28 c -2.21,0.05 -4.5,0.08 -7,0.08 -2.5,0 -5,0 -7.53,-0.07 h -0.23 -1.69 c -3.77,0 -7.74,0.37 -11.15,4.82 a 6.9,6.9 0 0 1 -5.64,2.61 z m 46.94,-14.26 a 4.72,4.72 0 0 0 -4.18,4.67 4.33,4.33 0 0 0 4.43,4.74 h 0.25 a 4.68,4.68 0 0 0 3.51,-1.37 4.58,4.58 0 0 0 1.15,-3.51 c -0.15,-2.63 -2,-4.33 -4.9,-4.55 h -0.13 z m -47.62,0 a 4.65,4.65 0 0 0 -4.41,4.63 4.32,4.32 0 0 0 4.4,4.77 h 0.32 A 4.36,4.36 0 0 0 96.68,47.73 4.68,4.68 0 0 0 92,43.18 H 91.8 Z M 83.85,6.05 c -1.17,0 -4.2,0 -4.21,3.4 0,8.29 0,16.59 0,25.39 v 12 l 1.72,-1.78 c 4.67,-4.84 7.71,-6.81 10.48,-6.81 2.54,0 5.16,1.65 9.16,5.75 a 5.66,5.66 0 0 0 4.41,1.67 h 12.31 q 3.74,0 7.48,0 h 0.11 a 5.09,5.09 0 0 0 3.83,-1.23 4.92,4.92 0 0 0 1.18,-3.69 c -0.11,-10.32 -0.07,-20.88 0,-30.19 A 4.78,4.78 0 0 0 129.24,7.11 4.25,4.25 0 0 0 126.07,6 c -6.66,0 -13.29,0 -19.92,0 H 85.32 Z m 55.88,32.19 c 4.19,0 7.27,2.43 10.87,5.61 l 1.66,1.47 v -4.5 c 0,-1.78 0,-3.57 0,-5.35 a 3.51,3.51 0 0 0 -0.9,-2.61 3.55,3.55 0 0 0 -2.63,-0.93 h -10.37 c -2.78,0 -3.41,1.62 -3.44,3 a 3.42,3.42 0 0 0 0.84,2.58 3.06,3.06 0 0 0 2.29,0.86 h 0.53 q 0.59,-0.13 1.14,-0.13 z m 7.38,-11.07 c 0.26,0 0.52,0 0.79,0 0.27,0 0.65,0.05 1,0.05 a 3,3 0 0 0 2.94,-1.75 c 1,-2.17 -0.51,-3.54 -1.49,-4.45 a 7.85,7.85 0 0 1 -0.81,-0.83 8.38,8.38 0 0 0 -2.1,-2 10.06,10.06 0 0 0 -5.44,-1.42 29,29 0 0 0 -4.72,0.52 c -2.58,0.43 -2.53,2.81 -2.51,4.09 0,0.26 0,0.51 0,0.74 -0.07,1.9 0.29,3.24 1.11,4.09 a 3.93,3.93 0 0 0 3,1 v 0 c 0.52,0 1,0 1.55,-0.09 0.55,-0.09 0.88,-0.08 1.29,-0.08 a 2.72,2.72 0 0 1 0.8,0.09 h 0.15 0.15 1.41 1.16 a 15.05,15.05 0 0 0 1.51,-0.06 z"
       id="path16"
       inkscape:connector-curvature="0"
       style="fill:#bf0000;fill-opacity:1" /><path
       class="cls-1"
       d="M 92.43,56.44 A 9.64,9.64 0 0 1 85.3,53 c -0.22,-0.26 -0.41,-0.54 -0.61,-0.82 -0.9,-1.27 -2.23,-3.15 -4.95,-3.15 h -0.4 -0.45 l 3.17,-3.29 c 4.4,-4.56 7.32,-6.51 9.76,-6.51 2.25,0 4.71,1.57 8.47,5.41 a 6.65,6.65 0 0 0 5.12,2 h 12.31 q 3.73,0 7.47,0 h 0.12 a 6,6 0 0 0 4.55,-1.53 5.85,5.85 0 0 0 1.47,-4.4 c -0.11,-10.34 -0.07,-20.88 0,-30.18 A 5.69,5.69 0 0 0 129.96,6.37 5.18,5.18 0 0 0 126.07,5 C 119.4,5 112.78,5 106.15,5 H 85.32 83.85 c -4.3,0 -5.21,2.39 -5.21,4.4 0,8 0,16.06 0,24.55 V 49 a 2.6,2.6 0 0 1 -1.8,-0.54 c -0.53,-0.54 -0.78,-1.75 -0.77,-3.71 0.11,-11.83 0.11,-24.27 0,-38 A 8.89,8.89 0 0 1 77.14,2 h 55.41 c 1,1.16 1.32,2.72 1.14,5 a 6.18,6.18 0 0 0 1.31,4.9 6.27,6.27 0 0 0 4.87,1.71 h 0.46 0.74 c 0.77,0 1.47,-0.05 2.17,-0.05 2.85,0 5.05,0.41 7.23,2.47 4.43,4.18 6.11,8.17 5.62,13.37 a 100.09,100.09 0 0 0 -0.19,11.74 c 0,1.53 0.07,3.06 0.08,4.59 0,1.71 -0.37,2.46 -0.7,2.78 a 2.39,2.39 0 0 1 -1.74,0.51 h -0.65 c -3,0 -4.56,1.68 -5.93,3.41 -2,2.54 -4.57,3.94 -7.18,3.94 a 8.83,8.83 0 0 1 -6.88,-3.78 8.22,8.22 0 0 0 -7,-3.56 h -0.29 c -2.21,0.05 -4.49,0.08 -7,0.08 -2.51,0 -5,0 -7.51,-0.07 h -0.23 -1.7 c -3.85,0 -8.26,0.4 -11.94,5.21 a 5.93,5.93 0 0 1 -4.8,2.19 z M 139.18,42.2 a 5.72,5.72 0 0 0 -5,5.62 5.32,5.32 0 0 0 5.4,5.77 h 0.27 a 5.66,5.66 0 0 0 4.26,-1.69 5.55,5.55 0 0 0 1.42,-4.26 c -0.18,-3.13 -2.41,-5.24 -5.82,-5.49 h -0.27 z m -47.56,0 a 5.64,5.64 0 0 0 -5.27,5.58 5.31,5.31 0 0 0 5.35,5.81 h 0.36 A 5.35,5.35 0 0 0 97.68,47.68 5.68,5.68 0 0 0 92,42.18 h -0.2 z m 48.11,-3 c 3.83,0 6.77,2.32 10.21,5.36 l 3.33,2.94 v -6.69 c 0,-1.78 0,-3.56 0,-5.34 a 4.47,4.47 0 0 0 -1.19,-3.32 4.51,4.51 0 0 0 -3.33,-1.23 h -10.39 c -2.75,0 -4.37,1.45 -4.44,3.94 a 4.38,4.38 0 0 0 1.08,3.3 4.07,4.07 0 0 0 3,1.16 q 0.3,0 0.63,0 c 0.37,-0.06 0.76,-0.08 1.09,-0.08 z m 7.38,-11.07 c 0.22,0 0.45,0 0.68,0 0.39,0 0.74,0.06 1.09,0.06 a 3.89,3.89 0 0 0 3.85,-2.35 c 1.26,-2.83 -0.75,-4.69 -1.72,-5.59 a 7.33,7.33 0 0 1 -0.71,-0.71 9.24,9.24 0 0 0 -2.36,-2.27 11,11 0 0 0 -6,-1.58 29.73,29.73 0 0 0 -4.88,0.53 c -3.43,0.57 -3.37,3.85 -3.35,5.09 0,0.27 0,0.49 0,0.69 -0.09,2.18 0.37,3.76 1.39,4.82 a 5,5 0 0 0 3.67,1.35 c 0.57,0 1.14,-0.05 1.64,-0.1 0.5,-0.05 0.84,-0.08 1.2,-0.08 a 1.8,1.8 0 0 1 0.5,0 l 0.29,0.09 h 0.31 1.39 1.19 a 16,16 0 0 0 1.61,-0.07 z"
       id="path18"
       inkscape:connector-curvature="0"
       style="fill:#bf0000;fill-opacity:1" /><path
       class="cls-1"
       d="m 235.53,126.1 c -3.28,7.31 -4.85,15.15 -6.83,22.85 -0.92,3.59 -2.69,5.89 -6.26,6.8 a 3.57,3.57 0 0 0 -1,0.36 c -11.14,6.76 -22,4.63 -32.92,-0.77 a 7.76,7.76 0 0 1 -4.57,-5.2 c -2,-7.19 -3.86,-14.41 -6,-21.53 -1.36,-4.46 0,-6.85 4.61,-6.94 4.61,-0.09 5.8,-2.32 5.46,-6.61 -0.36,-4.66 -0.08,-9.37 -0.07,-14.05 0,-2.52 0.9,-4.77 3.66,-4.77 3.58,0 3.9,-1.95 3.69,-4.66 -0.29,-3.75 0.66,-6.61 5.15,-6.72 1.9,0 2.16,-1.3 2.21,-2.83 a 33.51,33.51 0 0 1 0.41,-5.16 3.0045341,3.0045341 0 0 1 6,0.33 c -0.13,4.37 0,8 5.8,8.69 2,0.24 1.8,3.1 1.72,5 -0.13,3 -0.08,5.47 4.16,5.41 2.51,0 3.19,2.26 3.18,4.56 0,4.69 0.28,9.39 -0.06,14.05 -0.31,4.26 0.89,6.66 5.46,6.69 a 10.08,10.08 0 0 1 6.16,2.41 z m -26.2,13 c 0,3.64 0,7.29 0,10.93 0,1.14 -0.22,2.49 1.59,2.75 3.12,0.45 11.1,-4.41 12,-7.5 1.32,-4.67 2.41,-9.42 3.83,-14.06 0.77,-2.51 -0.09,-3.35 -2.42,-4 -14.23,-3.71 -15,-3.16 -15,11.31 -0.01,0.24 -0.01,0.41 0,0.58 z m -6.67,0 c 0,-14.51 0,-14.44 -13.7,-12.08 -3.27,0.56 -4.57,1.69 -3.42,5.11 1.43,4.25 2.53,8.61 3.78,12.92 0.91,3.15 8.56,8.11 11.71,7.67 1.78,-0.25 1.58,-1.59 1.6,-2.73 0.05,-3.58 0.02,-7.22 0.04,-10.85 z m 3.73,-25.56 v 0 c -2.93,0 -5.86,0 -8.8,0 -2.26,0 -2.94,1.17 -2.92,3.27 0,2.58 1.46,2.75 3.42,2.33 a 37,37 0 0 1 15.83,0 c 1.88,0.41 3.48,0.4 3.6,-2.2 0.1,-2.41 -1,-3.49 -3.37,-3.42 -2.58,0.12 -5.15,0.07 -7.76,0.07 z m 6.68,-10.87 c -1.22,0.51 -3.69,-0.65 -3.57,2.19 0.12,2.84 2.56,2.19 4.3,2.27 1.74,0.08 3.75,0 3.53,-2.52 -0.22,-2.52 -2.55,-1.49 -4.26,-1.89 z M 206.15,91.5 c -1.64,0.24 -4.15,-0.62 -4,2.49 0.13,2.72 2.4,2 4,2 1.6,0 3.77,0.66 3.82,-2.13 0.05,-2.79 -2.07,-2.19 -3.82,-2.31 z m -7.65,15.68 c 1.55,-0.23 3.74,0.46 4,-2.1 0.27,-2.84 -2,-2.33 -3.6,-2.26 -1.6,0.07 -3.84,-0.91 -4,1.84 -0.16,2.75 1.84,2.41 3.6,2.57 z"
       id="path20"
       inkscape:connector-curvature="0"
       style="fill:#bf0000;fill-opacity:1" /><path
       class="cls-1"
       d="m 206.83,159.35 c -5.41,0 -11.08,-1.56 -17.84,-4.9 a 6.76,6.76 0 0 1 -4,-4.57 l -1,-3.68 c -1.59,-5.88 -3.24,-12 -5,-17.89 -0.62,-2 -0.61,-3.5 0,-4.37 0.61,-0.87 1.81,-1.24 3.65,-1.27 2.37,0 4,-0.64 5.1,-1.81 1.1,-1.17 1.56,-3.11 1.34,-5.87 -0.25,-3.24 -0.18,-6.59 -0.12,-9.83 0,-1.38 0.05,-2.76 0.06,-4.14 0,-3.77 2,-3.77 2.66,-3.77 A 4.81,4.81 0 0 0 195.33,96 c 1.06,-1.15 1.09,-2.83 1,-4.47 -0.17,-2.16 0.14,-3.63 0.92,-4.5 a 4.32,4.32 0 0 1 3.26,-1.15 c 3.07,-0.07 3.15,-2.68 3.19,-3.79 v -0.37 a 30.15,30.15 0 0 1 0.38,-4.63 1.92,1.92 0 0 1 1.9,-1.72 2.36,2.36 0 0 1 1.7,0.64 1.58,1.58 0 0 1 0.45,1.19 c -0.11,3.75 -0.27,8.89 6.68,9.71 0.94,0.11 0.94,1.81 0.85,3.7 v 0.26 c -0.07,1.7 -0.17,3.81 1.12,5.16 a 5.11,5.11 0 0 0 3.88,1.3 h 0.17 a 1.75,1.75 0 0 1 1.32,0.46 4.51,4.51 0 0 1 0.84,3.1 c 0,1.5 0,3 0.05,4.51 0.06,3.12 0.12,6.35 -0.11,9.47 -0.21,2.81 0.24,4.72 1.42,6 1.18,1.28 2.73,1.75 5,1.77 a 8.8,8.8 0 0 1 5.17,1.9 v 1.37 c -2.63,5.92 -4.18,12.23 -5.68,18.33 -0.37,1.5 -0.73,3 -1.12,4.48 -0.9,3.5 -2.56,5.32 -5.54,6.08 a 4.53,4.53 0 0 0 -1.24,0.48 26.6,26.6 0 0 1 -14.11,4.07 z m 7.56,-35 c -6.07,0 -6.07,5.36 -6.07,14.25 0,0.2 0,0.41 0,0.61 v 2.95 c 0,2.59 0,5.27 0,7.91 v 0.36 c 0,1 0,3 2.45,3.37 a 4.14,4.14 0 0 0 0.58,0 c 3.68,0 11.51,-4.77 12.5,-8.26 0.54,-1.91 1,-3.83 1.54,-5.75 0.71,-2.73 1.45,-5.55 2.29,-8.28 a 4.15,4.15 0 0 0 0,-3.34 4.62,4.62 0 0 0 -3.08,-1.88 c -5.03,-1.29 -7.98,-1.94 -10.21,-1.94 z m -16.62,0.54 A 59.85,59.85 0 0 0 189,126 h -0.21 c -1.6,0.27 -3.35,0.75 -4.19,2.15 -0.63,1.05 -0.63,2.41 0,4.26 1,2.92 1.83,6 2.64,8.9 0.37,1.33 0.74,2.66 1.13,4 1.05,3.63 8.61,8.42 12.25,8.42 v 0 a 4,4 0 0 0 0.56,0 c 2.47,-0.34 2.46,-2.4 2.46,-3.39 v -0.32 c 0,-2.33 0,-4.66 0,-7 0,-1.3 0,-2.61 0,-3.91 0,-5.4 0,-8.63 -0.66,-10.79 -0.71,-2.4 -2.28,-3.43 -5.22,-3.43 z m 8.32,-5.55 a 36.1,36.1 0 0 1 7.63,0.82 8.14,8.14 0 0 0 1.71,0.22 c 1.1,0 3,-0.43 3.1,-3.35 a 4.34,4.34 0 0 0 -1,-3.35 4.14,4.14 0 0 0 -3.16,-1.11 h -0.24 c -1,0 -2,0 -3,0 h -5.72 v 0 h -4.26 -3.53 v 0 a 3.84,3.84 0 0 0 -2.9,1 4.52,4.52 0 0 0 -1,3.29 c 0,3 1.91,3.5 3,3.5 a 7.54,7.54 0 0 0 1.6,-0.2 36.94,36.94 0 0 1 7.76,-0.83 z m -9.24,-17.58 a 2.78,2.78 0 0 0 -3,2.88 3.23,3.23 0 0 0 0.66,2.46 4.41,4.41 0 0 0 3.29,1.09 h 0.64 0.12 0.12 a 7.88,7.88 0 0 1 1,-0.05 c 1.26,0 3.6,-0.06 3.87,-2.94 a 3.22,3.22 0 0 0 -0.65,-2.57 3.17,3.17 0 0 0 -2.44,-0.87 c -0.34,0 -0.69,0 -1,0 h -0.52 -0.12 c -0.25,0 -0.53,0 -0.81,-0.05 -0.28,-0.05 -0.82,0.04 -1.17,0.04 z m 15.85,0 a 3.34,3.34 0 0 1 -0.93,0.08 3.34,3.34 0 0 0 -2.57,0.79 3,3 0 0 0 -0.69,2.29 c 0.13,3.25 2.78,3.25 3.65,3.25 h 1.6 0.74 a 4.13,4.13 0 0 0 3.12,-1 3.26,3.26 0 0 0 0.72,-2.59 2.82,2.82 0 0 0 -3.25,-2.77 h -0.9 a 4,4 0 0 1 -0.87,-0.07 l -0.31,-0.07 z M 206.09,97 h 0.68 c 0.32,0 0.64,0 1,0 a 2.9,2.9 0 0 0 3.2,-3.19 3.26,3.26 0 0 0 -0.79,-2.45 4.14,4.14 0 0 0 -3.12,-0.9 c -0.27,0 -0.54,0 -0.8,0 h -0.11 -0.11 a 7.53,7.53 0 0 1 -1,0 4,4 0 0 0 -3.08,0.88 3.35,3.35 0 0 0 -0.76,2.6 2.87,2.87 0 0 0 3.2,3 c 0.31,0 0.63,0 0.94,0 0.31,0 0.51,0 0.75,0 z"
       id="path22"
       inkscape:connector-curvature="0"
       style="fill:#bf0000;fill-opacity:1" /><path
       class="cls-1"
       d="m 206.83,158.35 c -5.25,0 -10.78,-1.52 -17.39,-4.8 a 5.79,5.79 0 0 1 -3.53,-3.93 l -1,-3.67 c -1.59,-5.88 -3.24,-12 -5.06,-17.92 -0.69,-2.24 -0.37,-3.15 -0.12,-3.49 0.38,-0.52 1.4,-0.83 2.86,-0.86 2.66,-0.05 4.56,-0.75 5.82,-2.14 1.26,-1.39 1.83,-3.57 1.6,-6.62 -0.23,-3.05 -0.18,-6.5 -0.12,-9.71 0,-1.41 0.06,-2.8 0.06,-4.18 0,-2.77 1.08,-2.77 1.66,-2.77 a 5.74,5.74 0 0 0 4.46,-1.58 c 1.32,-1.43 1.37,-3.36 1.23,-5.23 -0.14,-1.87 0.08,-3.1 0.67,-3.75 a 3.43,3.43 0 0 1 2.54,-0.82 c 2.66,-0.06 4.06,-1.66 4.16,-4.76 v -0.37 a 29.48,29.48 0 0 1 0.37,-4.48 c 0.17,-0.9 0.71,-0.9 0.92,-0.9 a 1.4,1.4 0 0 1 1,0.33 0.57,0.57 0 0 1 0.17,0.46 c -0.11,3.65 -0.29,9.73 7.42,10.72 a 8.64,8.64 0 0 1 0.11,2.68 v 0.26 c -0.08,1.79 -0.19,4.24 1.4,5.89 a 6,6 0 0 0 4.6,1.6 h 0.18 c 0.44,0 0.56,0.12 0.61,0.17 a 3.71,3.71 0 0 1 0.55,2.39 c 0,1.46 0,2.93 0.05,4.39 v 0.14 c 0.06,3.1 0.12,6.3 -0.11,9.38 -0.23,3.08 0.3,5.25 1.68,6.74 1.38,1.49 3.17,2.07 5.76,2.09 a 7.54,7.54 0 0 1 4.18,1.43 v 0.64 c -2.61,5.95 -4.16,12.23 -5.65,18.31 -0.37,1.49 -0.73,3 -1.12,4.47 -0.81,3.14 -2.2,4.69 -4.82,5.35 a 5.51,5.51 0 0 0 -1.51,0.59 25.64,25.64 0 0 1 -13.63,3.95 z m 7.56,-35 c -7.07,0 -7.07,6.4 -7.07,15.25 0,0.23 0,0.47 0,0.7 v 3 c 0,2.56 0,5.21 0,7.81 v 0.34 c 0,1 0,3.87 3.3,4.36 a 5.27,5.27 0 0 0 0.72,0 c 4.15,0 12.34,-5 13.46,-9 0.53,-1.86 1,-3.74 1.51,-5.62 v -0.16 c 0.71,-2.72 1.44,-5.52 2.27,-8.24 a 5.05,5.05 0 0 0 -0.13,-4.12 5.56,5.56 0 0 0 -3.7,-2.36 c -5.01,-1.31 -8.03,-1.96 -10.36,-1.96 z m -16.62,0.54 a 60.2,60.2 0 0 0 -8.93,1.17 h -0.21 c -1.82,0.31 -3.83,0.87 -4.88,2.62 -0.79,1.32 -0.82,2.94 -0.1,5.09 1,2.91 1.82,5.93 2.63,8.85 0.37,1.33 0.74,2.67 1.13,4 1.2,4.15 9.14,9.14 13.21,9.14 a 5.08,5.08 0 0 0 0.7,0 c 3.33,-0.46 3.33,-3.41 3.32,-4.38 v -0.31 c 0,-2.27 0,-4.54 0,-6.82 v -0.18 c 0,-1.3 0,-2.6 0,-3.9 0,-5.48 0,-8.79 -0.7,-11.09 -0.84,-2.87 -2.81,-4.19 -6.18,-4.19 z m 8.32,-3.55 a 35.07,35.07 0 0 1 7.42,0.8 9.14,9.14 0 0 0 1.92,0.24 c 2.45,0 4,-1.61 4.1,-4.31 a 5.27,5.27 0 0 0 -1.27,-4.08 5.07,5.07 0 0 0 -3.88,-1.42 h -0.25 c -1,0 -2,0 -3,0 h -6.72 v 0 h -3.26 -3.52 v 0 a 4.83,4.83 0 0 0 -3.62,1.28 5.43,5.43 0 0 0 -1.32,4 c 0,4.17 3.1,4.49 4,4.49 a 8.54,8.54 0 0 0 1.81,-0.22 36,36 0 0 1 7.58,-0.79 z m -9.24,-19.58 a 3.74,3.74 0 0 0 -4,3.8 4.18,4.18 0 0 0 0.91,3.2 5.32,5.32 0 0 0 4,1.43 h 0.61 0.23 0.24 a 6.72,6.72 0 0 1 0.81,0 c 1.25,0 4.51,-0.07 4.87,-3.85 a 3.77,3.77 0 0 0 -4.09,-4.53 c -0.36,0 -0.74,0 -1.1,0.05 h -0.49 -0.09 c -0.2,0 -0.44,0 -0.68,0 -0.46,-0.08 -0.85,-0.11 -1.23,-0.11 z m 15.46,0.12 h -0.55 a 4.27,4.27 0 0 0 -3.29,1.1 4,4 0 0 0 -1,3 c 0.06,1.57 0.75,4.21 4.65,4.21 h 0.73 0.82 0.78 a 5,5 0 0 0 3.86,-1.36 4.21,4.21 0 0 0 1,-3.35 c -0.15,-1.68 -1,-3.68 -4.24,-3.68 h -0.92 a 3.3,3.3 0 0 1 -0.63,0 l -0.63,-0.15 z M 206.09,98 h 0.6 c 0.36,0 0.7,0 1,0 a 3.9,3.9 0 0 0 4.2,-4.17 4.25,4.25 0 0 0 -1.07,-3.17 5.05,5.05 0 0 0 -3.83,-1.2 h -0.75 -0.21 -0.21 a 7,7 0 0 1 -0.87,0 4.93,4.93 0 0 0 -3.8,1.19 4.28,4.28 0 0 0 -1,3.33 3.84,3.84 0 0 0 4.2,4 c 0.33,0 0.67,0 1,0 h 0.68 z"
       id="path24"
       inkscape:connector-curvature="0"
       style="fill:#bf0000;fill-opacity:1" /><path
       class="cls-1"
       d="m 0,120.89 c 4.57,-4.14 10.39,-6.18 15.58,-9.27 2.37,-1.41 3.43,-3 3.35,-5.8 -0.17,-6.41 -0.15,-12.84 0,-19.25 C 19.07,79.25 23,74.52 29,74.24 c 6,-0.28 10.79,4.53 11.15,11.88 0.31,6.4 0.24,12.84 0,19.25 -0.1,3.15 0.7,5.35 3.75,6.56 a 27.88,27.88 0 0 1 3.18,1.77 c 12.28,6.85 12.28,6.85 11.24,20.92 -0.34,4.57 -1.87,5.58 -6,3.82 -3,-1.29 -6,-2.72 -9,-4.15 -2.21,-1.06 -2.67,-0.34 -3.25,2 -1.22,4.89 0.2,7.67 4.89,9.59 3.58,1.47 5,11.51 2.48,14.27 a 3,3 0 0 1 -2.78,1.06 5.47,5.47 0 0 1 -2,-0.62 c -9.34,-6 -18.56,-6.15 -28.05,-0.12 -3.34,2.12 -5.55,0.39 -6,-3.53 -0.86,-7.9 -0.56,-9.19 6.63,-12.66 4.58,-2.21 3.72,-5.6 3.42,-9.14 -0.17,-1.93 -1.53,-1.52 -2.68,-1 -2.86,1.26 -5.78,2.4 -8.49,3.93 -2.71,1.53 -5.09,1.56 -7.49,-0.5 z m 16,30.48 c 4.66,0.32 8.08,-2.9 12.53,-2.94 4.45,-0.04 7.84,3.19 12.23,3.23 a 48.6,48.6 0 0 0 -6.9,-4.48 c -1.65,-0.93 -3.18,-2.4 -2.24,-4.14 2.47,-4.58 1.72,-9.42 1.94,-14.22 0.18,-4 2.23,-5.25 5.9,-3.57 2.68,1.23 5.29,2.61 8,3.8 1.19,0.53 2.53,1.85 3.8,0.71 1.27,-1.14 0.78,-2.92 0.66,-4.45 -0.15,-1.85 -1.64,-2.53 -3,-3.28 -3.19,-1.75 -6.32,-3.65 -9.62,-5.16 -4.29,-2 -6.22,-4.79 -5.85,-9.75 0.46,-6 0.15,-12.13 0.09,-18.2 0,-3.24 0.54,-7.66 -3.91,-7.76 -5,-0.11 -4.13,4.65 -4.21,7.94 -0.16,6.24 -0.25,12.49 0,18.72 0.17,4.18 -1.24,6.87 -5.09,8.64 -3.85,1.77 -7.28,4 -11,5.91 -3.14,1.63 -2.88,4.63 -1.93,6.74 1.13,2.53 3.23,0.11 4.75,-0.47 2.42,-0.91 4.66,-2.3 7.06,-3.29 4.19,-1.74 5.78,-0.75 6.08,3.79 0.3,4.54 -0.32,9 1.38,13.36 0.83,2.14 -1,3.44 -2.76,4.42 -2.64,1.47 -5.26,2.97 -7.91,4.46 z"
       id="path26"
       inkscape:connector-curvature="0"
       style="fill:#bf0000;fill-opacity:1" /><path
       class="cls-1"
       d="m 12,160.37 c -1.77,0 -2.24,-2.49 -2.35,-3.55 -0.83,-7.58 -0.71,-8.38 6.07,-11.65 4.77,-2.3 4.4,-5.93 4.08,-9.12 0,-0.33 -0.07,-0.67 -0.1,-1 -0.18,-2.12 -1.58,-2.35 -2.17,-2.35 a 4.94,4.94 0 0 0 -1.91,0.51 l -2,0.85 a 69.1,69.1 0 0 0 -6.62,3.12 6.6,6.6 0 0 1 -3.2,1 4.68,4.68 0 0 1 -2.8,-1.09 v -15.75 a 45.7,45.7 0 0 1 9.71,-6 c 1.78,-0.9 3.62,-1.84 5.38,-2.88 2.78,-1.65 3.92,-3.65 3.84,-6.68 -0.16,-5.83 -0.16,-12.11 0,-19.21 0.14,-6.74 3.63,-11.09 9.12,-11.35 h 0.46 c 5.37,0 9.33,4.5 9.64,10.94 0.27,5.5 0.28,11.41 0,19.17 -0.08,2.66 0.34,5.92 4.38,7.52 a 13.08,13.08 0 0 1 2,1.07 c 0.36,0.22 0.72,0.44 1.08,0.65 6,3.33 9,5 10.22,7.35 1.22,2.35 1,5.79 0.51,12.61 -0.27,3.71 -1.3,3.71 -1.91,3.71 a 7.39,7.39 0 0 1 -2.69,-0.74 c -3.11,-1.33 -6.2,-2.82 -8.93,-4.13 a 4.69,4.69 0 0 0 -2,-0.58 c -1.84,0 -2.31,1.86 -2.65,3.22 -1.33,5.34 0.36,8.66 5.48,10.76 1.11,0.46 2.19,2.4 2.76,5 0.72,3.24 0.45,6.56 -0.63,7.72 a 2.09,2.09 0 0 1 -1.54,0.79 1.9,1.9 0 0 1 -0.33,0 4.81,4.81 0 0 1 -1.6,-0.47 A 27.24,27.24 0 0 0 28.6,155 26.89,26.89 0 0 0 14.15,159.6 4.14,4.14 0 0 1 12,160.37 Z m 16.59,-10.94 a 15.07,15.07 0 0 1 5.79,1.57 17,17 0 0 0 6.4,1.69 h 2.86 l -2.22,-1.8 a 49.39,49.39 0 0 0 -7,-4.58 c -1.18,-0.66 -2.45,-1.69 -1.85,-2.79 2,-3.74 2,-7.61 2,-11.36 0,-1.08 0,-2.2 0,-3.29 0.15,-3.35 1.58,-3.35 2.12,-3.35 a 5.92,5.92 0 0 1 2.36,0.64 c 1.2,0.55 2.39,1.13 3.57,1.71 1.44,0.7 2.92,1.43 4.42,2.09 a 8.15,8.15 0 0 1 0.74,0.39 4.85,4.85 0 0 0 2.37,0.85 2.59,2.59 0 0 0 1.77,-0.71 c 1.44,-1.29 1.23,-3.09 1.06,-4.53 0,-0.25 -0.06,-0.5 -0.08,-0.74 C 52.72,123 51,122 49.65,121.29 l -0.27,-0.14 -2.6,-1.45 c -2.29,-1.29 -4.65,-2.63 -7.09,-3.74 -4.07,-1.85 -5.6,-4.39 -5.27,-8.76 0.35,-4.61 0.26,-9.31 0.17,-13.86 0,-1.48 -0.06,-3 -0.07,-4.42 0,-0.34 0,-0.69 0,-1.05 0,-3 0.07,-7.59 -4.89,-7.7 h -0.19 a 4.85,4.85 0 0 0 -3.6,1.29 c -1.52,1.54 -1.48,4 -1.45,6.21 0,0.49 0,1 0,1.42 -0.15,5.92 -0.26,12.3 0,18.79 0.16,3.91 -1.15,6.14 -4.51,7.69 -2.23,1 -4.38,2.25 -6.47,3.43 -1.48,0.84 -3,1.71 -4.55,2.49 -3.59,1.83 -3.59,5.36 -2.4,8 a 2.47,2.47 0 0 0 2.29,1.73 5.32,5.32 0 0 0 2.65,-1.06 7.1,7.1 0 0 1 1.08,-0.6 40.58,40.58 0 0 0 3.95,-1.82 c 1,-0.52 2.08,-1.05 3.14,-1.49 a 7.75,7.75 0 0 1 2.76,-0.73 c 0.64,0 1.7,0 1.94,3.66 0.08,1.23 0.09,2.49 0.1,3.72 0,3.25 0.06,6.61 1.35,9.93 0.37,1 0.11,1.82 -2.32,3.18 q -2.79,1.56 -5.56,3.14 l -5.22,3 3.32,0.23 h 0.73 a 17.34,17.34 0 0 0 6.4,-1.56 15.59,15.59 0 0 1 5.48,-1.41 z"
       id="path28"
       inkscape:connector-curvature="0"
       style="fill:#bf0000;fill-opacity:1" /><path
       class="cls-1"
       d="m 12,159.37 c -1,0 -1.33,-2.39 -1.36,-2.66 -0.17,-1.51 -0.3,-2.72 -0.35,-3.72 l 5.55,0.38 h 0.79 a 18.13,18.13 0 0 0 6.76,-1.63 14.86,14.86 0 0 1 5.13,-1.34 h 0.07 a 14.34,14.34 0 0 1 5.41,1.49 17.78,17.78 0 0 0 6.77,1.76 l 5.72,0.05 -4.49,-3.59 a 50.18,50.18 0 0 0 -7.18,-4.67 c -1,-0.56 -1.62,-1.17 -1.47,-1.45 2.14,-4 2.14,-8 2.13,-11.83 0,-1.07 0,-2.18 0,-3.24 0.11,-2.39 0.82,-2.39 1.12,-2.39 a 4.87,4.87 0 0 1 1.94,0.55 c 1.19,0.55 2.37,1.12 3.55,1.7 1.47,0.72 2.95,1.44 4.45,2.11 a 6.6,6.6 0 0 1 0.6,0.32 5.81,5.81 0 0 0 2.92,1 3.61,3.61 0 0 0 2.44,-1 c 1.82,-1.63 1.56,-3.89 1.39,-5.39 0,-0.25 -0.06,-0.48 -0.07,-0.71 -0.22,-2.81 -2.36,-4 -3.78,-4.74 l -0.26,-0.14 -2.49,-1.39 -0.09,-0.05 c -2.3,-1.3 -4.69,-2.65 -7.17,-3.78 -3.67,-1.67 -5,-3.85 -4.68,-7.77 0.35,-4.66 0.26,-9.39 0.17,-14 0,-1.47 -0.06,-2.95 -0.07,-4.41 0,-0.33 0,-0.67 0,-1 0,-3 0.08,-8.59 -5.87,-8.72 h -0.2 a 5.81,5.81 0 0 0 -4.32,1.59 c -1.81,1.84 -1.77,4.66 -1.74,6.93 0,0.48 0,0.94 0,1.38 -0.15,5.93 -0.26,12.32 0,18.86 0.15,3.53 -0.92,5.35 -3.93,6.74 -2.27,1 -4.44,2.28 -6.55,3.47 -1.47,0.83 -3,1.7 -4.51,2.47 -4.22,2.15 -4.17,6.38 -2.86,9.34 a 3.44,3.44 0 0 0 3.21,2.32 6.16,6.16 0 0 0 3.32,-1.21 7,7 0 0 1 0.9,-0.51 41.39,41.39 0 0 0 4,-1.86 c 1,-0.51 2.05,-1 3.07,-1.46 a 7,7 0 0 1 2.38,-0.65 c 0.21,0 0.76,0 0.94,2.73 0.08,1.19 0.09,2.44 0.1,3.64 0,3.36 0.06,6.81 1.41,10.31 0.11,0.28 0.29,0.74 -1.87,1.95 l -5.47,3.09 -7.15,4 c 0,-3.22 1.17,-4 5.88,-6.24 5.4,-2.6 5,-7 4.64,-10.12 0,-0.36 -0.07,-0.67 -0.1,-1 -0.21,-2.4 -1.77,-3.26 -3.17,-3.26 a 5.84,5.84 0 0 0 -2.32,0.6 l -2,0.84 A 69.65,69.65 0 0 0 6.52,136.23 5.65,5.65 0 0 1 3.81,137.09 3.47,3.47 0 0 1 2,136.57 V 121.8 a 46.91,46.91 0 0 1 9.17,-5.55 c 1.84,-0.93 3.67,-1.86 5.44,-2.91 3.09,-1.83 4.42,-4.17 4.33,-7.57 -0.16,-5.81 -0.16,-12.08 0,-19.16 0.13,-6.17 3.25,-10.14 8.16,-10.38 h 0.41 c 4.8,0 8.36,4.11 8.65,10 0.27,5.47 0.28,11.36 0,19.09 -0.09,2.76 0.34,6.63 5,8.48 a 12.42,12.42 0 0 1 1.81,1 c 0.38,0.23 0.75,0.46 1.13,0.67 5.79,3.23 8.7,4.86 9.83,7 1.13,2.14 0.88,5.43 0.39,12.07 -0.14,1.85 -0.44,2.78 -0.91,2.78 a 6.64,6.64 0 0 1 -2.3,-0.65 c -3.08,-1.31 -6.15,-2.79 -8.86,-4.09 a 5.66,5.66 0 0 0 -2.48,-0.69 c -2.62,0 -3.27,2.58 -3.62,4 -1.46,5.84 0.47,9.63 6.07,11.93 0.65,0.27 1.63,1.85 2.16,4.24 0.68,3.09 0.35,6 -0.39,6.82 -0.39,0.42 -0.64,0.46 -0.81,0.46 H 45.02 A 4.55,4.55 0 0 1 43.78,159.01 28.21,28.21 0 0 0 28.6,154 a 27.86,27.86 0 0 0 -15,4.75 3.3,3.3 0 0 1 -1.6,0.62 z"
       id="path30"
       inkscape:connector-curvature="0"
       style="fill:#bf0000;fill-opacity:1" /><path
       class="cls-1"
       d="m 165.33,117.87 c -1.39,27.49 -21.17,47.3 -47.67,47.18 -27.37,-0.12 -47.3,-20.78 -47.17,-47.4 0.12,-27.46 20.87,-47.31 47.39,-47.18 27.34,0.13 46.27,20.77 47.45,47.4 z m -35.88,-3.27 a 29.51,29.51 0 0 1 3.12,0 c 4.54,0.49 5.55,-1.39 4.91,-5.8 -0.74,-5.14 -3.21,-6.82 -8,-6 -2.65,0.43 -6.18,-1.32 -7.83,1.1 -1.65,2.42 -1.12,6.1 -0.28,9.08 0.67,2.39 3.19,1.44 5,1.62 a 31.14,31.14 0 0 0 3.08,0.01 z m -22.63,6.32 c -1.59,0 -2.82,0.1 -4,0 -4.18,-0.41 -5.62,1.21 -4.74,5.45 1.32,6.35 1.15,6.38 9.75,6.37 7,0 6.65,0 6.89,-6.76 0.22,-7.15 -4.89,-4.47 -7.91,-5.06 z m 21.79,11.81 c 2.23,-0.8 5.67,1.63 7.65,-1.8 3.7,-6.38 1.67,-10 -5.53,-10 -1.56,0 -3.13,0.13 -4.68,0 -3.77,-0.37 -5.25,1.08 -5.2,5 0.09,6.79 -0.11,6.8 7.75,6.8 z m -22.26,-18.12 c 2.86,-0.94 8.53,2.64 8.34,-5 -0.17,-6.78 0.11,-6.79 -6.84,-6.8 h -3.12 c -5.24,0.05 -6.89,2 -6.88,8.4 0,5.14 4,2.82 6.48,3.39 a 11.12,11.12 0 0 0 2.01,0.01 z m 42.75,18.12 c 6.83,0 8.73,-1.91 8.77,-8.6 0,-5.35 -4.13,-3 -6.45,-3.1 -7.11,-0.31 -8.14,1 -8.07,8.92 0.04,5.16 4.19,1.62 5.74,2.78 z m -63,0 c 1.57,-1.42 6.12,2.67 6.1,-2.91 0,-8 -0.9,-9.15 -7.65,-8.76 -2.38,0.14 -6.94,-2.64 -6.83,3.19 0.1,6.67 1.85,8.47 8.34,8.48 z m 65.47,-18.12 c 1.75,-1.21 6.08,2.32 6.34,-2.92 0.32,-6.35 -2.11,-9.16 -8.08,-8.74 -2.18,0.15 -6.53,-2.76 -6.42,2.85 0.11,8.08 0.8,8.8 8.12,8.81 z m -67.91,0 c 7.68,0 8.53,-0.86 8.56,-8.94 0,-5.06 -4,-2.63 -6.05,-2.74 -6.54,-0.34 -8.28,1.6 -8.46,8.38 -0.2,5.49 4.16,2.26 5.9,3.3 z m -0.1,-18.7 c 4.91,-0.38 9.61,2.35 12.35,-1.7 3,-4.48 5.74,-9.25 9.61,-15 -10.08,3.08 -16.46,8.41 -22.01,16.7 z m 68.13,-0.66 c -5.37,-7.65 -11.63,-13.08 -21.45,-16 2.78,4.23 5,7.27 6.85,10.48 4.17,7.19 5.03,7.59 14.55,5.53 z m -46.81,59.95 a 95.07,95.07 0 0 1 -9,-14.07 c -0.79,-1.56 -10.12,-2.49 -11.13,-1.27 a 1.82,1.82 0 0 0 -0.21,1.37 c 1,4.4 14.46,13.87 20.34,13.97 z M 152,139.64 c -4.87,0.22 -9.58,-2.11 -12.14,1.37 -3.26,4.43 -5.67,9.58 -8.73,14.39 C 140,153.21 146.39,148 152,139.64 Z M 114.6,88.85 c 0,-1.21 0.06,-2.41 0,-3.61 -0.06,-1.2 0.39,-2.66 -1.11,-3.1 -1.1,-0.32 -1.82,0.79 -2.49,1.54 a 44.85,44.85 0 0 0 -7,9.55 c -0.71,1.43 -0.93,2.41 1.24,2.87 7.23,1.51 9.36,-0.1 9.36,-7.25 z m 0.17,57.86 c -1.14,-2.48 2.12,-7.24 -3.76,-7.19 -2.46,0 -6,-1.39 -7.16,0.9 -1.16,2.29 1.8,4.48 3.12,6.63 a 11.46,11.46 0 0 0 1.64,2 c 1.53,1.56 2.74,4.85 4.73,4.2 2.66,-0.9 0.66,-4.25 1.43,-6.54 z m 6.16,-0.25 a 30.22,30.22 0 0 0 0,3.1 c 0.13,1.29 -0.64,3.07 0.93,3.72 1.57,0.65 2.35,-1.08 3.19,-2 a 40,40 0 0 0 6.37,-8.74 c 0.6,-1.22 1.42,-2.4 -0.91,-3 -6.68,-1.87 -9.58,0.16 -9.59,6.92 z m -0.14,-58 c 1.3,2.37 -2.35,7.06 3.32,7.48 2.58,0.19 6.28,1.43 7.6,-1 1.13,-2.05 -1.84,-4.45 -3.18,-6.59 a 11.59,11.59 0 0 0 -1.64,-2 c -1.53,-1.54 -2.63,-4.77 -4.76,-4.12 -2.5,0.83 -0.67,4.05 -1.34,6.27 z"
       id="path32"
       inkscape:connector-curvature="0"
       style="fill:#bf0000;fill-opacity:1" /><path
       class="cls-1"
       d="m 117.66,164.05 c -26.45,-0.12 -46.3,-20.06 -46.18,-46.39 0.12,-26.33 20,-46.19 46.15,-46.19 h 0.24 c 12.95,0.06 24.3,4.71 32.83,13.46 8.22,8.43 13.06,20.14 13.63,33 -1.35,26.69 -20.88,46.14 -46.43,46.14 z m 26.63,-26 a 6,6 0 0 0 -5.22,2.34 85.83,85.83 0 0 0 -5.33,8.61 c -1.09,1.93 -2.22,3.93 -3.44,5.83 l -1.3,2.17 2.42,-0.6 c 8.73,-2.16 15.35,-7.14 21.46,-16.17 l 1.12,-1.65 -2,0.09 h -0.64 a 30.8,30.8 0 0 1 -3.71,-0.3 27.86,27.86 0 0 0 -3.36,-0.29 z m -56.52,0.21 c -2.64,0 -3.39,0.49 -3.75,0.92 a 2.76,2.76 0 0 0 -0.42,2.23 c 1.09,5 15,14.66 21.26,14.76 h 2 l -1.22,-1.63 a 93.6,93.6 0 0 1 -8.86,-13.92 c -0.96,-1.92 -7.35,-2.33 -9.01,-2.33 z m 38.73,-0.44 c -4.42,0 -6.57,2.82 -6.58,8.61 0,0.31 0,0.62 0,0.93 a 17.74,17.74 0 0 0 0,2.27 5.63,5.63 0 0 1 0,1 c -0.09,1.06 -0.23,2.82 1.58,3.57 a 2.77,2.77 0 0 0 1.06,0.22 c 1.38,0 2.2,-1.11 2.8,-1.92 0.16,-0.21 0.31,-0.42 0.46,-0.59 a 40.88,40.88 0 0 0 6.52,-9 l 0.14,-0.27 a 3.1,3.1 0 0 0 0.44,-2.69 3,3 0 0 0 -2.13,-1.47 16.64,16.64 0 0 0 -4.28,-0.63 z m -20,0.25 A 3.77,3.77 0 0 0 103,140 c -1.13,2.18 0.54,4.25 1.89,5.92 a 16.88,16.88 0 0 1 1.26,1.69 12.45,12.45 0 0 0 1.78,2.17 12.48,12.48 0 0 1 1.22,1.6 c 1,1.4 2.05,3 3.71,3 v 0 a 2.62,2.62 0 0 0 0.82,-0.13 c 2.45,-0.8 2.21,-3.07 2,-4.73 a 6.07,6.07 0 0 1 0,-2.41 l 0.13,-0.38 -0.17,-0.37 a 5.43,5.43 0 0 1 -0.1,-2.39 c 0.13,-1.41 0.27,-3 -0.78,-4.16 a 4.79,4.79 0 0 0 -3.71,-1.23 H 111 a 15.85,15.85 0 0 1 -2,-0.19 18.08,18.08 0 0 0 -2.46,-0.29 z m -19.48,-4.7 a 7,7 0 0 1 1.29,0.2 8.83,8.83 0 0 0 1.82,0.26 2.72,2.72 0 0 0 2,-0.76 4.47,4.47 0 0 0 1,-3.28 c 0,-7 -0.64,-9.82 -6.69,-9.82 -0.61,0 -1.28,0 -2,0.07 h -0.12 a 9.71,9.71 0 0 1 -1.66,-0.24 12.31,12.31 0 0 0 -2.35,-0.31 3.36,3.36 0 0 0 -2.54,0.94 5.11,5.11 0 0 0 -1.11,3.82 c 0.15,7.23 2.34,9.44 9.38,9.45 h 0.39 l 0.29,-0.26 a 0.58,0.58 0 0 1 0.35,-0.03 z M 149.73,120 c -2.89,0 -4.53,0.46 -5.64,1.58 -1.52,1.53 -1.78,4.13 -1.75,8.39 0,3.22 1.65,3.89 3,3.89 a 8.85,8.85 0 0 0 1.66,-0.21 7,7 0 0 1 1.17,-0.16 0.57,0.57 0 0 1 0.31,0.05 l 0.27,0.2 h 0.33 c 7.35,0 9.72,-2.33 9.77,-9.59 a 4.87,4.87 0 0 0 -1.11,-3.61 3.4,3.4 0 0 0 -2.55,-0.93 12.61,12.61 0 0 0 -2.11,0.24 10,10 0 0 1 -1.53,0.19 h -0.11 Q 150.53,120 149.73,120 Z m -20,13.56 a 11.66,11.66 0 0 1 1.41,0.13 14.18,14.18 0 0 0 1.78,0.15 4.49,4.49 0 0 0 4.17,-2.39 c 2,-3.53 2.48,-6.37 1.29,-8.44 -1.19,-2.07 -3.75,-3.07 -7.68,-3.07 v 0 h -1.54 -1.44 c -0.62,0 -1.13,0 -1.61,-0.07 -0.48,-0.07 -0.8,-0.06 -1.16,-0.06 a 5,5 0 0 0 -3.73,1.29 c -1,1 -1.44,2.52 -1.4,4.78 v 0.51 c 0.1,7.1 0.83,7.3 8.75,7.31 h 0.17 l 0.16,-0.06 a 2.44,2.44 0 0 1 0.85,-0.08 z m -28.12,-13.71 a 4.75,4.75 0 0 0 -3.94,1.48 c -0.93,1.14 -1.12,2.8 -0.62,5.24 l 0.08,0.38 c 1.31,6.35 2,6.79 9.78,6.79 h 0.87 c 7.21,0 7.65,-0.39 7.86,-6.88 v -0.84 c 0.08,-2.28 -0.35,-3.87 -1.32,-4.87 a 4.76,4.76 0 0 0 -3.6,-1.23 c -0.49,0 -1,0 -1.5,0.06 -0.5,0.06 -0.89,0.06 -1.32,0.06 a 5,5 0 0 1 -1,-0.08 h -0.09 -0.1 -1.5 -1.15 c -0.44,0 -0.86,0 -1.28,-0.05 -0.42,-0.05 -0.78,-0.06 -1.15,-0.06 z m 29.79,-4.28 a 9.94,9.94 0 0 1 1,0 13.1,13.1 0 0 0 1.39,0.08 4.71,4.71 0 0 0 3.78,-1.38 c 1,-1.13 1.24,-2.87 0.83,-5.64 -0.69,-4.76 -3,-7.08 -6.95,-7.08 a 13.82,13.82 0 0 0 -2.22,0.2 5.09,5.09 0 0 1 -0.83,0.06 17.49,17.49 0 0 1 -1.85,-0.14 18.76,18.76 0 0 0 -2,-0.15 4.26,4.26 0 0 0 -3.79,1.75 c -2,3 -1.21,7.08 -0.42,9.91 a 3.31,3.31 0 0 0 3.57,2.39 c 0.32,0 0.65,0 1,0 0.35,0 0.57,0 0.84,0 h 0.46 a 12.67,12.67 0 0 0 1.28,0.06 v 0 h 1 0.94 v 0 h 1 z m 21.17,-0.23 a 8.34,8.34 0 0 1 1.25,0.15 10.31,10.31 0 0 0 1.68,0.18 c 2.09,0 3.21,-1.32 3.34,-3.93 0.18,-3.57 -0.48,-6.1 -2,-7.73 -1.35,-1.42 -3.29,-2.1 -5.94,-2.1 q -0.57,0 -1.18,0 h -0.11 a 8.15,8.15 0 0 1 -1.58,-0.27 10.55,10.55 0 0 0 -2.34,-0.36 3.07,3.07 0 0 0 -2.29,0.86 4.87,4.87 0 0 0 -1,3.63 c 0.16,8.59 1.28,9.78 9.16,9.79 h 0.31 l 0.26,-0.18 a 1,1 0 0 1 0.46,-0.04 z m -45,0.1 c 0.47,0 1,0 1.53,0.1 0.53,0.1 1.2,0.11 1.81,0.11 a 4.48,4.48 0 0 0 3.34,-1.18 c 1,-1 1.41,-2.6 1.35,-4.9 v -0.75 c -0.16,-6.62 -0.59,-7 -7.82,-7 h -3.13 c -5.82,0.06 -7.88,2.52 -7.87,9.4 0,3 1.28,4.43 3.89,4.43 0.45,0 0.91,0 1.38,-0.08 0.47,-0.08 0.82,-0.07 1.21,-0.07 a 3.5,3.5 0 0 1 0.77,0.07 3.48,3.48 0 0 0 0.81,0.08 h 0.57 0.86 0.16 0.15 a 3.25,3.25 0 0 1 1.06,-0.21 z M 84.78,101.89 c -6.61,0 -8,3.3 -8.12,9.39 a 4.64,4.64 0 0 0 1,3.49 3.06,3.06 0 0 0 2.32,0.86 v 0 a 11.19,11.19 0 0 0 1.5,-0.13 9.08,9.08 0 0 1 1.14,-0.11 1,1 0 0 1 0.5,0.08 l 0.24,0.14 h 0.38 c 8.1,0 9.43,-1.39 9.46,-9.94 a 4.57,4.57 0 0 0 -1,-3.38 3.13,3.13 0 0 0 -2.31,-0.86 10.86,10.86 0 0 0 -2.11,0.28 8.4,8.4 0 0 1 -1.44,0.21 c -0.65,-0.02 -1.12,-0.03 -1.56,-0.03 z m 28.3,-20.81 a 3.57,3.57 0 0 0 -2.6,1.64 l -0.25,0.29 a 46,46 0 0 0 -7.15,9.76 3.24,3.24 0 0 0 -0.4,2.85 3.16,3.16 0 0 0 2.32,1.44 21.67,21.67 0 0 0 4.37,0.55 v 0 c 2.33,0 3.94,-0.74 4.92,-2.25 0.98,-1.51 1.29,-3.38 1.29,-6.52 0,-0.36 0,-0.73 0,-1.09 0,-0.84 0,-1.71 0,-2.59 0,-0.21 0,-0.44 0,-0.66 0,-1 0.1,-2.77 -1.83,-3.34 a 2.37,2.37 0 0 0 -0.66,-0.09 z m 9.57,0.15 a 2.88,2.88 0 0 0 -0.84,0.13 c -2.34,0.71 -2.12,2.92 -2,4.53 a 6.54,6.54 0 0 1 0,2.32 l -0.12,0.4 0.2,0.37 a 4.62,4.62 0 0 1 0,2.41 c -0.18,1.38 -0.39,2.94 0.59,4.14 A 4.69,4.69 0 0 0 124,97 c 0.53,0 1.1,0.12 1.7,0.21 a 20.14,20.14 0 0 0 2.86,0.28 v 0 a 4.26,4.26 0 0 0 4,-2 c 1.15,-2.08 -0.49,-4.12 -1.94,-5.91 a 18.53,18.53 0 0 1 -1.27,-1.7 12.23,12.23 0 0 0 -1.79,-2.16 11.46,11.46 0 0 1 -1.19,-1.56 c -0.92,-1.37 -1.99,-2.93 -3.71,-2.93 z M 84.53,96.87 a 27.35,27.35 0 0 1 3.52,0.3 25.25,25.25 0 0 0 3.22,0.28 6,6 0 0 0 5.42,-2.69 c 1.42,-2.1 2.77,-4.26 4.19,-6.55 1.65,-2.65 3.36,-5.39 5.42,-8.43 l 1.58,-2.34 -2.7,0.82 c -9.74,3 -16.47,8.08 -22.5,17.08 l -1.15,1.71 2.06,-0.16 c 0.31,0 0.63,-0.02 0.94,-0.02 z m 44.83,-17 c 0.93,1.41 1.79,2.69 2.59,3.88 1.6,2.38 3,4.44 4.24,6.56 2.74,4.64 4.36,7.06 8.49,7.06 v 0 a 36.34,36.34 0 0 0 7.18,-1.11 l 1.47,-0.32 -0.87,-1.23 c -6,-8.61 -12.83,-13.66 -22,-16.35 l -2.62,-0.77 z"
       id="path34"
       inkscape:connector-curvature="0"
       style="fill:#bf0000;fill-opacity:1" /><path
       class="cls-1"
       d="M 117.67,163.05 C 91.8,162.93 72.37,143.42 72.49,117.66 72.61,91.9 92,72.47 117.63,72.47 h 0.24 c 12.67,0.06 23.78,4.61 32.12,13.15 8,8.25 12.79,19.73 13.34,32.33 -1.32,26.09 -20.43,45.09 -45.43,45.09 h -0.23 z m 26.63,-26 a 7.1,7.1 0 0 0 -6,2.74 86.56,86.56 0 0 0 -5.39,8.71 c -1.1,1.93 -2.22,3.91 -3.41,5.79 l -2.68,4.21 4.84,-1.2 c 9,-2.22 15.79,-7.33 22,-16.58 l 2.23,-3.3 -4,0.18 h -0.6 a 30.07,30.07 0 0 1 -3.59,-0.29 28.4,28.4 0 0 0 -3.41,-0.23 z m -56.52,0.21 c -2.42,0 -3.77,0.38 -4.52,1.28 a 3.76,3.76 0 0 0 -0.63,3.08 c 1.18,5.41 15.51,15.44 22.22,15.54 l 4.07,0.06 -2.44,-3.22 a 92.63,92.63 0 0 1 -8.77,-13.78 c -1.46,-2.89 -9.59,-2.93 -9.94,-2.93 z m 38.73,-0.44 c -5,0 -7.57,3.23 -7.58,9.61 0,0.3 0,0.61 0,0.91 a 18.73,18.73 0 0 0 0,2.4 5.21,5.21 0 0 1 0,0.79 c -0.09,1.06 -0.29,3.55 2.19,4.58 a 3.75,3.75 0 0 0 1.44,0.3 c 1.88,0 3,-1.46 3.61,-2.33 0.14,-0.19 0.27,-0.37 0.41,-0.52 a 41.76,41.76 0 0 0 6.67,-9.19 l 0.13,-0.27 a 4,4 0 0 0 0.46,-3.54 3.87,3.87 0 0 0 -2.78,-2 17.62,17.62 0 0 0 -4.55,-0.71 z m -20,0.25 a 4.61,4.61 0 0 0 -4.48,2.39 c -1.43,2.76 0.63,5.31 2,7 a 16.4,16.4 0 0 1 1.19,1.59 13.32,13.32 0 0 0 1.92,2.35 12,12 0 0 1 1.11,1.46 c 1,1.52 2.35,3.42 4.54,3.42 a 3.62,3.62 0 0 0 1.13,-0.18 c 3.22,-1.05 2.89,-4.13 2.72,-5.79 a 5.74,5.74 0 0 1 0,-2 l 0.27,-0.76 -0.34,-0.73 a 5.61,5.61 0 0 1 0,-1.88 c 0.14,-1.54 0.31,-3.45 -1,-4.92 a 5.7,5.7 0 0 0 -4.45,-1.55 H 111 a 15.21,15.21 0 0 1 -1.89,-0.18 18.83,18.83 0 0 0 -2.57,-0.19 z m -19.36,-2.69 a 8.77,8.77 0 0 1 1,0.17 9.74,9.74 0 0 0 2,0.28 3.74,3.74 0 0 0 2.72,-1.05 5.38,5.38 0 0 0 1.27,-4 c 0,-6.73 -0.55,-10.82 -7.69,-10.82 -0.63,0 -1.32,0 -2.08,0.07 h -0.09 a 9.58,9.58 0 0 1 -1.42,-0.22 13.1,13.1 0 0 0 -2.56,-0.33 4.36,4.36 0 0 0 -3.25,1.24 6,6 0 0 0 -1.39,4.54 c 0.16,7.79 2.77,10.42 10.37,10.43 H 86.8 Z M 149.73,119 c -3.19,0 -5,0.54 -6.35,1.88 -1.76,1.78 -2.08,4.57 -2,9.1 0.08,4.53 2.81,4.88 4,4.88 a 9.76,9.76 0 0 0 1.84,-0.23 8.55,8.55 0 0 1 0.9,-0.14 l 0.33,0.25 h 0.67 c 7.9,0 10.72,-2.77 10.77,-10.58 a 5.78,5.78 0 0 0 -1.4,-4.32 4.4,4.4 0 0 0 -3.26,-1.22 13.38,13.38 0 0 0 -2.28,0.25 9.63,9.63 0 0 1 -1.36,0.18 H 151.5 C 150.86,119 150.27,119 149.73,119 Z m -20,15.56 a 10.93,10.93 0 0 1 1.28,0.12 14.91,14.91 0 0 0 1.91,0.16 5.48,5.48 0 0 0 5,-2.89 c 2.24,-3.86 2.68,-7 1.3,-9.44 -1.38,-2.44 -4.24,-3.57 -8.55,-3.58 h -1.57 -0.1 -1.23 c -0.58,0 -1.06,0 -1.51,-0.06 -0.45,-0.06 -0.87,-0.07 -1.26,-0.07 a 5.91,5.91 0 0 0 -4.44,1.59 c -1.19,1.21 -1.73,3 -1.69,5.5 v 0.5 c 0.11,7.73 1.45,8.29 9.75,8.29 h 0.35 l 0.33,-0.12 a 1.49,1.49 0 0 1 0.45,0 z m -28.12,-15.71 a 5.67,5.67 0 0 0 -4.71,1.84 c -1.13,1.39 -1.39,3.32 -0.82,6.07 l 0.08,0.38 c 1.41,6.81 2.51,7.59 10.76,7.59 h 0.87 c 7.72,0 8.63,-0.82 8.86,-7.85 v -0.84 c 0.09,-2.56 -0.43,-4.4 -1.6,-5.6 a 5.75,5.75 0 0 0 -4.32,-1.54 c -0.51,0 -1,0 -1.56,0.06 -0.56,0.06 -0.87,0.06 -1.26,0.06 a 4.06,4.06 0 0 1 -0.76,-0.06 h -0.09 -0.19 -1.62 -1.13 c -0.41,0 -0.79,0 -1.18,0 -0.39,0 -0.89,-0.11 -1.31,-0.11 z m 29.79,-2.28 a 9,9 0 0 1 0.93,0 14.09,14.09 0 0 0 1.5,0.09 5.63,5.63 0 0 0 4.54,-1.72 c 1.18,-1.37 1.51,-3.35 1.07,-6.43 -0.76,-5.26 -3.43,-7.93 -7.93,-7.93 a 14.81,14.81 0 0 0 -2.38,0.21 4.14,4.14 0 0 1 -0.67,0 16.77,16.77 0 0 1 -1.74,-0.13 19.76,19.76 0 0 0 -2.13,-0.15 5.28,5.28 0 0 0 -4.62,2.18 c -2.27,3.32 -1.4,7.72 -0.56,10.75 0.4,1.42 1.51,3.12 4.53,3.12 0.33,0 0.68,0 1,0 h 0.79 0.36 a 13.48,13.48 0 0 0 1.38,0.06 h 1 0.91 1.06 z m 21.17,-0.23 a 8,8 0 0 1 1.09,0.13 11.23,11.23 0 0 0 1.84,0.2 c 1.53,0 4.13,-0.63 4.34,-4.88 0.19,-3.86 -0.56,-6.63 -2.3,-8.47 -1.55,-1.62 -3.73,-2.42 -6.67,-2.42 -0.4,0 -0.81,0 -1.25,0 h -0.07 a 8.45,8.45 0 0 1 -1.32,-0.25 11.45,11.45 0 0 0 -2.56,-0.38 4.08,4.08 0 0 0 -3,1.16 5.78,5.78 0 0 0 -1.33,4.35 c 0.17,9.15 1.69,10.76 10.16,10.77 h 0.62 l 0.39,-0.27 z m -45,0.1 c 0.42,0 0.91,0 1.43,0.1 0.52,0.1 1.26,0.12 1.9,0.12 a 5.53,5.53 0 0 0 4.06,-1.48 c 1.17,-1.2 1.7,-3 1.64,-5.62 v -0.75 c -0.17,-7.17 -1.07,-8 -8.82,-8 h -3.08 c -6.39,0.06 -8.88,3 -8.86,10.4 0,4.49 2.66,5.43 4.89,5.43 0.47,0 1,0 1.46,-0.08 0.46,-0.08 0.77,-0.07 1.13,-0.07 a 2.59,2.59 0 0 1 0.55,0 4.48,4.48 0 0 0 1,0.11 h 0.61 0.82 0.32 l 0.3,-0.1 a 2.3,2.3 0 0 1 0.72,-0.06 z M 84.78,100.89 c -7.36,0 -8.95,4 -9.12,10.37 a 5.55,5.55 0 0 0 1.26,4.22 4.06,4.06 0 0 0 3,1.16 12.13,12.13 0 0 0 1.64,-0.14 8.44,8.44 0 0 1 1,-0.1 h 0.09 l 0.37,0.22 h 0.65 c 8.67,0 10.43,-1.84 10.46,-10.93 a 5.49,5.49 0 0 0 -1.34,-4.09 4.1,4.1 0 0 0 -3,-1.15 11.6,11.6 0 0 0 -2.3,0.3 8.25,8.25 0 0 1 -1.24,0.19 c -0.53,-0.04 -1.01,-0.05 -1.47,-0.05 z m 28.3,-20.81 a 4.5,4.5 0 0 0 -3.37,2 l -0.25,0.29 a 46.73,46.73 0 0 0 -7.29,10 3.53,3.53 0 0 0 2.64,5.63 22.63,22.63 0 0 0 4.57,0.58 c 2.65,0 4.59,-0.91 5.76,-2.7 1,-1.54 1.46,-3.72 1.46,-7.07 0,-0.36 0,-0.72 0,-1.07 0,-0.81 0,-1.73 0,-2.66 0,-0.16 0,-0.34 0,-0.51 0,-1 0.13,-3.6 -2.55,-4.39 a 3.38,3.38 0 0 0 -0.96,-0.11 z m 9.57,0.15 a 3.87,3.87 0 0 0 -1.13,0.17 c -3.12,1 -2.83,4 -2.67,5.59 a 6.12,6.12 0 0 1 0,1.94 l -0.24,0.8 0.4,0.74 a 5.53,5.53 0 0 1 -0.07,1.8 c -0.2,1.5 -0.44,3.37 0.81,4.9 A 5.61,5.61 0 0 0 124,98 c 0.49,0 1,0.11 1.58,0.2 a 21.18,21.18 0 0 0 3,0.3 c 2.32,0 4,-0.84 4.86,-2.48 1.47,-2.67 -0.55,-5.19 -2,-7 a 18,18 0 0 1 -1.2,-1.6 13.15,13.15 0 0 0 -1.95,-2.42 10.93,10.93 0 0 1 -1.07,-1.42 c -1.03,-1.48 -2.31,-3.35 -4.56,-3.35 z M 84.53,97.87 a 26.53,26.53 0 0 1 3.39,0.3 26,26 0 0 0 3.35,0.29 7.08,7.08 0 0 0 6.25,-3.13 C 99,93.2 100.3,91 101.73,88.76 c 1.65,-2.64 3.35,-5.37 5.4,-8.4 l 3.17,-4.68 -5.4,1.65 c -10,3 -16.87,8.27 -23,17.48 l -2.29,3.43 4.11,-0.32 c 0.28,-0.04 0.52,-0.05 0.81,-0.05 z m 44,-17.48 c 0.91,1.39 1.76,2.64 2.55,3.82 1.64,2.44 3,4.48 4.25,6.57 2.85,4.82 4.69,7.55 9.35,7.55 a 37,37 0 0 0 7.39,-1.13 l 2.94,-0.64 -1.73,-2.47 c -6.18,-8.81 -13.13,-14 -22.53,-16.73 l -5.23,-1.54 z"
       id="path36"
       inkscape:connector-curvature="0"
       style="fill:#bf0000;fill-opacity:1" /><path
       class="cls-1"
       d="m 66.82,196.86 a 2.79,2.79 0 0 1 -1.39,2.6 c -1.88,1.07 -3.3,0 -4.72,-1 A 98.13,98.13 0 0 1 38.82,177.28 c -1.36,-1.78 -2.59,-3.67 -3.86,-5.53 -1.27,-1.86 -2.07,-3.92 0.27,-5.39 2.34,-1.47 3.88,0 5.14,1.9 a 92.69,92.69 0 0 0 15.88,18.39 c 2.6,2.28 5.37,4.35 8.06,6.51 1.23,0.95 2.48,1.92 2.51,3.7 z"
       id="path38"
       inkscape:connector-curvature="0"
       style="fill:#bf0000;fill-opacity:1" /><path
       class="cls-1"
       d="m 63.9,198.89 a 4.81,4.81 0 0 1 -2.43,-1.16 l -0.19,-0.14 a 97.67,97.67 0 0 1 -21.66,-21 c -1,-1.3 -1.94,-2.7 -2.85,-4.05 l -1,-1.43 c -0.82,-1.2 -1.16,-2.11 -1,-2.77 a 2,2 0 0 1 1,-1.21 2.36,2.36 0 0 1 1.23,-0.42 c 0.8,0 1.63,0.67 2.55,2 a 93,93 0 0 0 16.05,18.66 c 1.81,1.59 3.74,3.1 5.59,4.56 l 2.5,2 c 1.33,1.07 2.1,1.75 2.12,3 a 1.75,1.75 0 0 1 -0.89,1.71 2.07,2.07 0 0 1 -1.02,0.25 z"
       id="path40"
       inkscape:connector-curvature="0"
       style="fill:#bf0000;fill-opacity:1" /><path
       class="cls-1"
       d="m 63.9,197.89 a 4.47,4.47 0 0 1 -1.86,-1 l -0.2,-0.14 A 96.69,96.69 0 0 1 40.4,176 c -1,-1.27 -1.9,-2.65 -2.8,-4 l -1,-1.47 c -0.91,-1.33 -0.9,-1.87 -0.87,-2 0.03,-0.13 0.23,-0.36 0.56,-0.57 a 1.39,1.39 0 0 1 0.7,-0.27 c 0.2,0 0.75,0.16 1.71,1.59 a 94,94 0 0 0 16.23,18.78 c 1.83,1.6 3.76,3.12 5.62,4.58 l 2.51,2 c 1.34,1.08 1.74,1.5 1.75,2.21 0.01,0.71 -0.22,0.73 -0.38,0.82 a 1.11,1.11 0 0 1 -0.53,0.22 z"
       id="path42"
       inkscape:connector-curvature="0"
       style="fill:#bf0000;fill-opacity:1" /><path
       class="cls-1"
       d="m 200.83,64.64 a 3.29,3.29 0 0 1 -1.58,3.46 2.71,2.71 0 0 1 -3.71,-0.73 c -1.77,-2.12 -3.38,-4.37 -5.08,-6.55 a 95.52,95.52 0 0 0 -18.61,-18 c -2.08,-1.55 -5.7,-3.15 -3.16,-6.37 2.41,-3 5,-0.16 7.14,1.37 a 93.53,93.53 0 0 1 23.39,24 c 0.66,1.06 1.21,2.13 1.61,2.82 z"
       id="path44"
       inkscape:connector-curvature="0"
       style="fill:#bf0000;fill-opacity:1" /><path
       class="cls-1"
       d="m 197.76,67.55 a 2,2 0 0 1 -1.46,-0.82 c -1.13,-1.36 -2.23,-2.8 -3.28,-4.2 -0.59,-0.78 -1.18,-1.56 -1.78,-2.33 A 95.86,95.86 0 0 0 172.43,42.05 c -0.31,-0.23 -0.66,-0.47 -1,-0.71 -1.15,-0.78 -2.45,-1.66 -2.6,-2.59 a 2.26,2.26 0 0 1 0.64,-1.65 c 0.68,-0.86 1.21,-1 1.56,-1 1,0 2.15,0.93 3.2,1.75 0.35,0.27 0.69,0.54 1,0.78 a 93,93 0 0 1 23.15,23.77 c 0.45,0.67 0.84,1.38 1.19,2 l 0.27,0.49 a 2.22,2.22 0 0 1 -1.11,2.31 1.91,1.91 0 0 1 -0.97,0.35 z"
       id="path46"
       inkscape:connector-curvature="0"
       style="fill:#bf0000;fill-opacity:1" /><path
       class="cls-1"
       d="m 197.76,66.55 c -0.28,0 -0.57,-0.32 -0.69,-0.46 -1.12,-1.34 -2.2,-2.78 -3.25,-4.16 -0.59,-0.78 -1.18,-1.57 -1.79,-2.34 a 96.87,96.87 0 0 0 -19,-18.33 c -0.33,-0.24 -0.68,-0.48 -1.05,-0.73 -0.73,-0.49 -2.09,-1.41 -2.17,-1.92 0,-0.1 0.06,-0.39 0.44,-0.87 0.38,-0.48 0.56,-0.58 0.77,-0.58 0.62,0 1.75,0.89 2.58,1.53 0.36,0.28 0.72,0.56 1.06,0.8 A 92,92 0 0 1 197.56,63 c 0.42,0.63 0.8,1.31 1.14,1.92 l 0.15,0.27 a 1.15,1.15 0 0 1 -0.63,1.19 0.92,0.92 0 0 1 -0.46,0.17 z"
       id="path48"
       inkscape:connector-curvature="0"
       style="fill:#bf0000;fill-opacity:1" /><path
       class="cls-1"
       d="m 169.14,195.78 c 0.19,-1.17 1.43,-2.15 2.69,-3.08 a 97.22,97.22 0 0 0 19.65,-19.25 c 1.41,-1.84 3.13,-3.85 5.6,-2.08 2.47,1.77 1,4 -0.37,5.86 a 95.9,95.9 0 0 1 -21.56,21 c -1.46,1 -3,1.94 -4.78,0.77 -0.93,-0.63 -1.37,-1.54 -1.23,-3.22 z"
       id="path50"
       inkscape:connector-curvature="0"
       style="fill:#bf0000;fill-opacity:1" /><path
       class="cls-1"
       d="m 172.08,198.52 a 2.11,2.11 0 0 1 -1.17,-0.38 c -0.46,-0.3 -0.93,-0.74 -0.78,-2.25 0.13,-0.78 1.43,-1.74 2.29,-2.37 a 98.75,98.75 0 0 0 19.85,-19.44 c 0.92,-1.2 1.9,-2.37 2.94,-2.37 a 2.22,2.22 0 0 1 1.28,0.5 2,2 0 0 1 0.94,1.26 c 0.15,1 -0.86,2.31 -1.52,3.19 a 95.4,95.4 0 0 1 -21.34,20.75 4.85,4.85 0 0 1 -2.49,1.11 z"
       id="path52"
       inkscape:connector-curvature="0"
       style="fill:#bf0000;fill-opacity:1" /><path
       class="cls-1"
       d="m 172.08,197.52 a 1.1,1.1 0 0 1 -0.62,-0.22 c -0.2,-0.13 -0.43,-0.28 -0.33,-1.32 a 8.93,8.93 0 0 1 1.89,-1.66 99.77,99.77 0 0 0 20,-19.64 c 0.45,-0.59 1.51,-2 2.14,-2 a 1.36,1.36 0 0 1 0.7,0.31 c 0.45,0.33 0.53,0.53 0.54,0.6 0.08,0.56 -0.91,1.87 -1.33,2.42 a 94.4,94.4 0 0 1 -21.07,20.56 4.32,4.32 0 0 1 -1.92,0.95 z"
       id="path54"
       inkscape:connector-curvature="0"
       style="fill:#bf0000;fill-opacity:1" /><path
       class="cls-1"
       d="M 64.19,40.5 A 4.32,4.32 0 0 1 62.14,43.95 101.11,101.11 0 0 0 42,64.85 c -1.3,1.8 -3,3.25 -5.24,1.5 -2.24,-1.75 -1,-3.72 0.27,-5.5 A 97.54,97.54 0 0 1 57.8,39.15 c 1.43,-1.11 2.94,-2 4.78,-1.13 a 2.68,2.68 0 0 1 1.61,2.48 z"
       id="path56"
       inkscape:connector-curvature="0"
       style="fill:#bf0000;fill-opacity:1" /><path
       class="cls-1"
       d="m 38.68,66.14 a 2.21,2.21 0 0 1 -1.33,-0.57 c -1.31,-1 -1,-2 0.47,-4.15 a 95.86,95.86 0 0 1 20.6,-21.48 4.73,4.73 0 0 1 2.69,-1.25 2.56,2.56 0 0 1 1.06,0.24 1.68,1.68 0 0 1 1,1.61 c 0,0.93 -0.48,1.7 -1.66,2.61 a 102.59,102.59 0 0 0 -20.38,21.1 c -0.88,1.26 -1.71,1.89 -2.45,1.89 z"
       id="path58"
       inkscape:connector-curvature="0"
       style="fill:#bf0000;fill-opacity:1" /><path
       class="cls-1"
       d="m 38.68,65.14 a 1.26,1.26 0 0 1 -0.71,-0.35 c -0.57,-0.46 -0.81,-0.65 0.67,-2.8 A 94.89,94.89 0 0 1 59,40.73 a 4,4 0 0 1 2.08,-1 1.56,1.56 0 0 1 0.65,0.16 c 0.22,0.1 0.41,0.23 0.43,0.74 0.02,0.51 -0.15,0.91 -1.28,1.78 A 103.58,103.58 0 0 0 40.34,63.67 c -1.01,1.4 -1.56,1.47 -1.66,1.47 z"
       id="path60"
       inkscape:connector-curvature="0"
       style="fill:#bf0000;fill-opacity:1" /><path
       class="cls-1"
       d="m 111.81,205.65 c -2.77,0 -5.56,0.15 -8.32,-0.05 -1.84,-0.13 -3.41,-1.1 -3.3,-3.28 0.11,-2.18 1.6,-3 3.53,-3 q 8.59,-0.1 17.17,0 c 1.93,0 3.49,1 3.61,3 0.12,2 -1.49,3.15 -3.34,3.26 -3.11,0.19 -6.23,0.05 -9.35,0.05 z"
       id="path62"
       inkscape:connector-curvature="0"
       style="fill:#bf0000;fill-opacity:1" /><path
       class="cls-1"
       d="m 106.85,204.7 c -1.27,0 -2.32,0 -3.28,-0.1 -1.64,-0.12 -2.44,-0.87 -2.37,-2.24 0,-0.51 0.1,-2.06 2.54,-2.09 q 4.31,0 8.61,0 4.3,0 8.54,0 a 2.35,2.35 0 0 1 2.63,2.08 1.82,1.82 0 0 1 -0.42,1.39 2.87,2.87 0 0 1 -2,0.81 c -1.1,0.07 -2.29,0.1 -3.75,0.1 h -2.76 -2.79 -1 v 0 h -1.5 z"
       id="path64"
       inkscape:connector-curvature="0"
       style="fill:#bf0000;fill-opacity:1" /><path
       class="cls-1"
       d="m 106.85,203.7 c -1.25,0 -2.27,0 -3.21,-0.1 -1.5,-0.11 -1.47,-0.73 -1.45,-1.19 0.02,-0.46 0.05,-1.12 1.55,-1.14 q 4.3,0 8.6,0 4.3,0 8.53,0 c 1.57,0 1.62,0.87 1.64,1.15 a 0.84,0.84 0 0 1 -0.17,0.67 1.92,1.92 0 0 1 -1.3,0.48 c -1.09,0.06 -2.26,0.09 -3.68,0.09 h -2.75 -2.8 -2 v 0.06 h -0.51 z"
       id="path66"
       inkscape:connector-curvature="0"
       style="fill:#bf0000;fill-opacity:1" /><path
       class="cls-1"
       d="m 217.55,129.39 c 2,0 3.61,0.74 3.83,2.79 0.22,2.05 -1.18,3.19 -3.17,3.33 -1.99,0.14 -4,-0.61 -4.07,-3 -0.06,-2.03 1.5,-2.95 3.41,-3.12 z"
       id="path68"
       inkscape:connector-curvature="0"
       style="fill:#bf0000;fill-opacity:1" /><path
       class="cls-1"
       d="m 217.71,134.53 c -2.49,0 -2.54,-1.53 -2.56,-2 0,-1.25 0.79,-2 2.49,-2.11 2.54,0 2.69,1.38 2.75,1.9 a 1.87,1.87 0 0 1 -0.34,1.45 2.69,2.69 0 0 1 -1.9,0.77 z"
       id="path70"
       inkscape:connector-curvature="0"
       style="fill:#bf0000;fill-opacity:1" /><path
       class="cls-1"
       d="m 217.71,133.53 c -1.52,0 -1.54,-0.59 -1.56,-1.07 0,-0.33 0,-0.93 1.58,-1.08 1.55,0 1.62,0.59 1.67,1 a 1,1 0 0 1 -0.12,0.7 1.8,1.8 0 0 1 -1.2,0.42 z"
       id="path72"
       inkscape:connector-curvature="0"
       style="fill:#bf0000;fill-opacity:1" /><path
       class="cls-1"
       d="m 194.1,135.53 c -1.82,-0.21 -3.32,-1 -3.19,-3.14 0.14,-2.41 1.86,-3.11 4,-2.94 2.14,0.17 3.24,1.34 3,3.37 -0.24,2.03 -1.82,2.73 -3.81,2.71 z"
       id="path74"
       inkscape:connector-curvature="0"
       style="fill:#bf0000;fill-opacity:1" /><path
       class="cls-1"
       d="m 194.16,134.53 c -2.07,-0.26 -2.31,-1.15 -2.26,-2.08 0.05,-0.93 0.39,-2 2.39,-2 h 0.5 a 2.52,2.52 0 0 1 1.75,0.74 2,2 0 0 1 0.35,1.52 c -0.06,0.54 -0.2,1.82 -2.73,1.82 z"
       id="path76"
       inkscape:connector-curvature="0"
       style="fill:#bf0000;fill-opacity:1" /><path
       class="cls-1"
       d="m 194.23,133.53 c -1.37,-0.18 -1.35,-0.54 -1.32,-1 0.03,-0.46 0.06,-1.08 1.39,-1.08 h 0.41 a 1.58,1.58 0 0 1 1.06,0.38 1.1,1.1 0 0 1 0.13,0.78 c -0.05,0.39 -0.1,0.91 -1.67,0.92 z"
       id="path78"
       inkscape:connector-curvature="0"
       style="fill:#bf0000;fill-opacity:1" /></g></g></svg>