<svg xmlns="http://www.w3.org/2000/svg" viewBox="0 0 74.28 74.28"><defs><style>.cls-1{fill:#727272;}</style></defs><g id="Capa_2" data-name="Capa 2"><g id="Capa_1-2" data-name="Capa 1"><path class="cls-1" d="M73.11,59.39a1.16,1.16,0,0,0,1.17-1.16V17.29a1.19,1.19,0,0,0-.34-.82L61.53,4.06a1.15,1.15,0,0,0-.82-.34H34.58V3.49A3.5,3.5,0,0,0,31.09,0H3.49A3.5,3.5,0,0,0,0,3.49V41A3.49,3.49,0,0,0,3.49,44.5h8.92V73.11a1.16,1.16,0,0,0,1.16,1.17H73.11a1.17,1.17,0,0,0,1.17-1.17V64.43a1.17,1.17,0,0,0-2.33,0V72H14.73V44.5H31.09A3.49,3.49,0,0,0,34.58,41V21a1.17,1.17,0,0,0-2.33,0V41a1.16,1.16,0,0,1-1.16,1.17H3.49A1.16,1.16,0,0,1,2.33,41V3.49A1.16,1.16,0,0,1,3.49,2.33h27.6a1.16,1.16,0,0,1,1.16,1.16V14.81a1.17,1.17,0,0,0,2.33,0V6.05h25s0,0,0,.08V17.29a1.17,1.17,0,0,0,1.17,1.16H72V58.23A1.16,1.16,0,0,0,73.11,59.39ZM61.87,7.69l8.44,8.44H61.87Z"/><path class="cls-1" d="M28.76,53.34H21a1.17,1.17,0,0,0,0,2.33h7.75a1.17,1.17,0,1,0,0-2.33Z"/><path class="cls-1" d="M28.76,59.54H21a1.17,1.17,0,0,0,0,2.33h7.75a1.17,1.17,0,1,0,0-2.33Z"/><path class="cls-1" d="M38.25,44.79a1.16,1.16,0,0,0-1.57.49A17.29,17.29,0,1,0,52,36a17.12,17.12,0,0,0-12.47,5.31,1.17,1.17,0,1,0,1.68,1.62A15,15,0,0,1,67,53.26a15,15,0,1,1-29.93,0,14.76,14.76,0,0,1,1.69-6.9A1.17,1.17,0,0,0,38.25,44.79Z"/><path class="cls-1" d="M47.06,60.79a1.16,1.16,0,0,0,0,2.32h3.49v1.32a1.17,1.17,0,0,0,2.33,0V63.11h1.78a3.49,3.49,0,0,0,3.49-3.49V55.75a3.5,3.5,0,0,0-3.47-3.49l-1.8-.06V45.74H57a1.16,1.16,0,0,0,0-2.32H52.88V42.1a1.17,1.17,0,0,0-2.33,0v1.32H49.39a3.49,3.49,0,0,0-3.49,3.49v4a3.49,3.49,0,0,0,3.47,3.49l1.18,0v6.33Zm2.36-8.69h0a1.16,1.16,0,0,1-1.16-1.16v-4a1.17,1.17,0,0,1,1.16-1.17h1.16v6.4Zm3.46,2.43,1.75,0h0a1.16,1.16,0,0,1,1.16,1.17v3.87a1.17,1.17,0,0,1-1.16,1.17H52.88Z"/><path class="cls-1" d="M30.86,4.88a1.16,1.16,0,0,0-1.17-1.16H4.88A1.16,1.16,0,0,0,3.72,4.88v6.21a1.16,1.16,0,0,0,1.16,1.16H29.69a1.16,1.16,0,0,0,1.17-1.16Zm-2.33,5H6.05V6.05H28.53Z"/><path class="cls-1" d="M11,14.81a1.16,1.16,0,0,0-1.16-1.16h-5a1.16,1.16,0,0,0-1.16,1.16v5a1.16,1.16,0,0,0,1.16,1.16h5A1.16,1.16,0,0,0,11,19.77Zm-2.33,3.8H6.05V16H8.68Z"/><path class="cls-1" d="M20.93,14.81a1.16,1.16,0,0,0-1.16-1.16h-5a1.16,1.16,0,0,0-1.16,1.16v5a1.16,1.16,0,0,0,1.16,1.16h5a1.16,1.16,0,0,0,1.16-1.16Zm-2.32,3.8H16V16h2.64Z"/><path class="cls-1" d="M30.86,14.81a1.16,1.16,0,0,0-1.17-1.16h-5a1.16,1.16,0,0,0-1.16,1.16v5a1.16,1.16,0,0,0,1.16,1.16h5a1.16,1.16,0,0,0,1.17-1.16Zm-2.33,3.8H25.9V16h2.63Z"/><path class="cls-1" d="M11,24.73a1.16,1.16,0,0,0-1.16-1.16h-5a1.16,1.16,0,0,0-1.16,1.16v5a1.16,1.16,0,0,0,1.16,1.17h5A1.16,1.16,0,0,0,11,29.69Zm-2.33,3.8H6.05V25.9H8.68Z"/><path class="cls-1" d="M20.93,24.73a1.16,1.16,0,0,0-1.16-1.16h-5a1.16,1.16,0,0,0-1.16,1.16v5a1.16,1.16,0,0,0,1.16,1.17h5a1.16,1.16,0,0,0,1.16-1.17Zm-2.32,3.8H16V25.9h2.64Z"/><path class="cls-1" d="M9.85,33.49h-5a1.16,1.16,0,0,0-1.16,1.17v5a1.16,1.16,0,0,0,1.16,1.16h5A1.16,1.16,0,0,0,11,39.62v-5A1.16,1.16,0,0,0,9.85,33.49Zm-1.17,5H6.05V35.82H8.68Z"/><path class="cls-1" d="M19.77,33.49h-5a1.16,1.16,0,0,0-1.16,1.17v5a1.16,1.16,0,0,0,1.16,1.16h5a1.16,1.16,0,0,0,1.16-1.16v-5A1.16,1.16,0,0,0,19.77,33.49Zm-1.16,5H16V35.82h2.64Z"/><path class="cls-1" d="M29.69,23.57h-5a1.16,1.16,0,0,0-1.16,1.16V39.62a1.16,1.16,0,0,0,1.16,1.16h5a1.16,1.16,0,0,0,1.17-1.16V24.73A1.16,1.16,0,0,0,29.69,23.57ZM28.53,38.46H25.9V25.9h2.63Z"/><path class="cls-1" d="M48.8,12.53a1.21,1.21,0,0,0-.6-.32l-4.31-.86L41.82,9.07a1.16,1.16,0,1,0-1.72,1.56s2.39,2.61,2.47,2.67l.76,3.79a1.16,1.16,0,0,0,.31.6L62.18,36.22a3.49,3.49,0,0,0,4.93,0h0l.22-.22a3.5,3.5,0,0,0,0-4.94l-.17-.16L69,29.09a1.17,1.17,0,0,0,0-1.67l-6.33-6A1.16,1.16,0,1,0,61,23.1l5.46,5.19-1,1ZM45.07,14l2.33.47L58.61,25.64,56.75,27.5,45.54,16.29ZM65.68,34.35l-.22.22a1.15,1.15,0,0,1-1.64,0l-5.43-5.43,1.87-1.86,5.42,5.43A1.15,1.15,0,0,1,65.68,34.35Z"/></g></g></svg>